<svg xmlns="http://www.w3.org/2000/svg" width="699" height="699" viewBox="162 163 699 699">
<circle cx="511.5" cy="512.5" r="321.583" fill="black"/>
<path fill="#ececec" fill-rule="evenodd" d="M 860.075,512.500 A 348.575,348.575 0 1 1 162.925,512.500 A 348.575,348.575 0 1 1 860.075,512.500 Z M 833.083,512.500 A 321.583,321.583 0 1 0 189.917,512.500 A 321.583,321.583 0 1 0 833.083,512.500 Z"/>
<path fill="#ececec" d="M 513.000,398.379 C 512.384,398.426 510.833,398.462 510.000,398.280 C 509.167,398.098 508.607,397.667 508.000,397.287 C 507.393,396.907 506.859,396.399 506.359,396.000 C 505.859,395.601 505.560,395.352 505.000,394.894 C 504.440,394.436 503.567,393.733 503.000,393.251 C 502.433,392.768 502.101,392.437 501.601,392.000 C 501.101,391.563 500.600,391.125 500.000,390.627 C 499.400,390.129 498.546,389.451 498.000,389.014 C 497.454,388.576 497.223,388.403 496.723,388.000 C 496.223,387.597 495.599,387.097 495.000,386.597 C 494.401,386.097 493.633,385.433 493.131,385.000 C 492.629,384.567 492.512,384.450 491.990,384.000 C 491.468,383.550 490.581,382.800 490.000,382.300 C 489.419,381.800 489.006,381.421 488.506,381.000 C 488.006,380.579 487.584,380.242 487.000,379.773 C 486.416,379.305 485.566,378.650 485.000,378.188 C 484.434,377.726 484.104,377.424 483.604,377.000 C 483.104,376.576 482.601,376.143 482.000,375.646 C 481.399,375.149 480.545,374.456 480.000,374.015 C 479.455,373.574 479.231,373.413 478.731,373.000 C 478.231,372.587 477.576,372.037 477.000,371.537 C 476.424,371.037 475.773,370.439 475.273,370.000 C 474.773,369.561 474.546,369.366 474.000,368.905 C 473.454,368.444 472.573,367.718 472.000,367.234 C 471.427,366.750 471.062,366.420 470.562,366.000 C 470.062,365.580 469.594,365.206 469.000,364.713 C 468.406,364.220 467.543,363.496 467.000,363.043 C 466.457,362.591 466.241,362.424 465.741,362.000 C 465.241,361.576 464.581,360.997 464.000,360.497 C 463.419,359.997 462.758,359.416 462.255,359.000 C 461.752,358.584 461.522,358.446 460.980,358.000 C 460.437,357.554 459.600,356.827 459.000,356.327 C 458.400,355.827 457.879,355.405 457.379,355.000 C 456.879,354.595 456.563,354.359 456.000,353.895 C 455.437,353.431 454.571,352.699 454.000,352.216 C 453.429,351.734 453.072,351.419 452.572,351.000 C 452.072,350.581 451.595,350.191 451.000,349.704 C 450.405,349.217 449.537,348.527 449.000,348.076 C 448.463,347.626 448.275,347.446 447.775,347.000 C 447.275,346.554 446.551,345.898 446.000,345.398 C 445.449,344.898 444.967,344.451 444.467,344.000 C 443.967,343.549 443.578,343.181 443.000,342.692 C 442.422,342.203 441.542,341.513 441.000,341.064 C 440.458,340.615 440.246,340.418 439.746,340.000 C 439.246,339.582 438.624,339.020 438.000,338.555 C 437.376,338.090 436.667,337.604 436.000,337.210 C 435.333,336.816 434.833,336.369 434.000,336.191 C 433.167,336.013 431.860,336.007 431.000,336.142 C 430.140,336.277 429.507,336.630 428.840,337.000 C 428.174,337.370 427.640,337.875 427.000,338.365 C 426.360,338.855 425.554,339.501 425.000,339.940 C 424.446,340.379 424.173,340.597 423.673,341.000 C 423.173,341.403 422.612,341.860 422.000,342.360 C 421.388,342.860 420.541,343.560 420.000,344.000 C 419.460,344.440 419.256,344.592 418.756,345.000 C 418.256,345.408 417.592,345.950 417.000,346.450 C 416.408,346.950 415.702,347.563 415.202,348.000 C 414.702,348.437 414.534,348.610 414.000,349.071 C 413.466,349.531 412.556,350.274 412.000,350.763 C 411.444,351.251 411.162,351.550 410.662,352.000 C 410.162,352.450 409.604,352.965 409.000,353.465 C 408.396,353.965 407.592,354.577 407.040,355.000 C 406.488,355.423 406.195,355.650 405.688,356.000 C 405.182,356.350 404.615,356.753 404.000,357.103 C 403.385,357.452 402.833,357.870 402.000,358.097 C 401.167,358.324 400.000,358.394 399.000,358.465 C 398.000,358.536 397.000,358.511 396.000,358.523 C 395.000,358.534 394.000,358.534 393.000,358.535 C 392.000,358.537 391.000,358.534 390.000,358.533 C 389.000,358.531 388.000,358.528 387.000,358.526 C 386.000,358.525 385.000,358.524 384.000,358.524 C 383.000,358.524 382.000,358.526 381.000,358.527 C 380.000,358.528 379.000,358.528 378.000,358.529 C 377.000,358.529 376.000,358.528 375.000,358.529 C 374.000,358.529 373.000,358.528 372.000,358.530 C 371.000,358.532 370.000,358.538 369.000,358.541 C 368.000,358.544 367.000,358.546 366.000,358.548 C 365.000,358.550 364.000,358.553 363.000,358.552 C 362.000,358.551 361.000,358.544 360.000,358.541 C 359.000,358.538 358.000,358.536 357.000,358.533 C 356.000,358.531 355.000,358.533 354.000,358.527 C 353.000,358.520 352.000,358.511 351.000,358.496 C 350.000,358.481 349.000,358.448 348.000,358.439 C 347.000,358.430 345.734,358.681 345.000,358.441 C 344.266,358.202 343.597,357.441 343.597,357.000 C 343.597,356.559 344.433,356.270 345.000,355.796 C 345.567,355.323 346.445,354.625 347.000,354.159 C 347.555,353.693 347.830,353.442 348.330,353.000 C 348.830,352.558 349.437,352.005 350.000,351.505 C 350.563,351.005 351.206,350.443 351.706,350.000 C 352.206,349.557 352.451,349.316 353.000,348.849 C 353.549,348.383 354.423,347.676 355.000,347.201 C 355.577,346.726 355.964,346.414 356.464,346.000 C 356.964,345.586 357.411,345.216 358.000,344.718 C 358.589,344.220 359.461,343.466 360.000,343.013 C 360.539,342.560 360.735,342.415 361.235,342.000 C 361.735,341.585 362.398,341.022 363.000,340.522 C 363.602,340.022 364.338,339.420 364.849,339.000 C 365.360,338.580 365.539,338.434 366.065,338.000 C 366.590,337.566 367.405,336.896 368.000,336.396 C 368.595,335.896 369.137,335.428 369.637,335.000 C 370.137,334.572 370.440,334.291 371.000,333.826 C 371.560,333.361 372.434,332.683 373.000,332.212 C 373.566,331.741 373.894,331.430 374.394,331.000 C 374.894,330.570 375.399,330.130 376.000,329.635 C 376.601,329.139 377.458,328.465 378.000,328.026 C 378.542,327.587 378.751,327.418 379.251,327.000 C 379.751,326.582 380.404,326.017 381.000,325.517 C 381.596,325.017 382.321,324.420 382.826,324.000 C 383.331,323.580 383.501,323.442 384.030,323.000 C 384.559,322.558 385.418,321.850 386.000,321.350 C 386.582,320.850 387.022,320.427 387.522,320.000 C 388.022,319.573 388.420,319.257 389.000,318.789 C 389.580,318.320 390.433,317.654 391.000,317.190 C 391.567,316.725 391.904,316.423 392.404,316.000 C 392.904,315.577 393.417,315.154 394.000,314.654 C 394.583,314.154 395.401,313.442 395.903,313.000 C 396.406,312.558 396.498,312.449 397.014,312.000 C 397.531,311.551 398.406,310.807 399.000,310.307 C 399.594,309.807 400.081,309.419 400.581,309.000 C 401.081,308.581 401.430,308.255 402.000,307.791 C 402.570,307.326 403.434,306.678 404.000,306.213 C 404.566,305.747 404.899,305.433 405.399,305.000 C 405.899,304.567 406.415,304.115 407.000,303.615 C 407.585,303.115 408.388,302.436 408.911,302.000 C 409.434,301.564 409.623,301.435 410.138,301.000 C 410.652,300.565 411.414,299.890 412.000,299.390 C 412.586,298.890 413.154,298.423 413.654,298.000 C 414.154,297.577 414.442,297.326 415.000,296.849 C 415.558,296.372 416.446,295.615 417.000,295.140 C 417.554,294.665 417.824,294.429 418.324,294.000 C 418.824,293.571 419.418,293.065 420.000,292.565 C 420.582,292.065 421.310,291.427 421.816,291.000 C 422.322,290.573 422.507,290.434 423.037,290.000 C 423.568,289.566 424.404,288.895 425.000,288.395 C 425.596,287.895 426.111,287.424 426.611,287.000 C 427.111,286.576 427.435,286.246 428.000,285.850 C 428.565,285.453 429.167,284.859 430.000,284.619 C 430.833,284.379 432.167,284.305 433.000,284.411 C 433.833,284.517 434.333,284.854 435.000,285.256 C 435.667,285.659 436.440,286.371 437.000,286.828 C 437.560,287.285 437.858,287.574 438.358,288.000 C 438.858,288.426 439.401,288.882 440.000,289.382 C 440.599,289.882 441.429,290.564 441.949,291.000 C 442.470,291.436 442.613,291.573 443.122,292.000 C 443.630,292.427 444.409,293.062 445.000,293.562 C 445.591,294.062 446.167,294.574 446.667,295.000 C 447.167,295.426 447.444,295.671 448.000,296.119 C 448.556,296.567 449.402,297.207 450.000,297.688 C 450.598,298.168 451.086,298.580 451.586,299.000 C 452.086,299.420 452.431,299.727 453.000,300.206 C 453.569,300.684 454.441,301.404 455.000,301.870 C 455.559,302.335 455.857,302.575 456.357,303.000 C 456.857,303.425 457.407,303.918 458.000,304.418 C 458.593,304.918 459.399,305.570 459.916,306.000 C 460.433,306.430 460.589,306.557 461.103,307.000 C 461.617,307.443 462.428,308.156 463.000,308.656 C 463.572,309.156 464.035,309.574 464.535,310.000 C 465.035,310.426 465.423,310.753 466.000,311.214 C 466.577,311.676 467.414,312.306 468.000,312.770 C 468.586,313.235 469.018,313.582 469.518,314.000 C 470.018,314.418 470.420,314.800 471.000,315.281 C 471.580,315.762 472.444,316.433 473.000,316.887 C 473.556,317.340 473.837,317.579 474.337,318.000 C 474.837,318.421 475.396,318.911 476.000,319.411 C 476.604,319.911 477.436,320.568 477.963,321.000 C 478.490,321.432 478.654,321.558 479.161,322.000 C 479.667,322.442 480.434,323.153 481.000,323.653 C 481.566,324.153 482.055,324.572 482.555,325.000 C 483.055,325.428 483.426,325.766 484.000,326.222 C 484.574,326.679 485.405,327.273 486.000,327.736 C 486.595,328.199 487.073,328.599 487.573,329.000 C 488.073,329.401 488.429,329.692 489.000,330.145 C 489.571,330.598 490.415,331.245 491.000,331.721 C 491.585,332.196 492.011,332.569 492.511,333.000 C 493.011,333.431 493.418,333.821 494.000,334.306 C 494.582,334.792 495.460,335.462 496.000,335.911 C 496.540,336.360 496.739,336.557 497.239,337.000 C 497.739,337.443 498.432,338.066 499.000,338.566 C 499.568,339.066 500.148,339.563 500.648,340.000 C 501.148,340.437 501.441,340.715 502.000,341.187 C 502.559,341.658 503.401,342.358 504.000,342.827 C 504.599,343.296 505.079,343.638 505.592,344.000 C 506.104,344.362 506.488,344.667 507.075,345.000 C 507.661,345.333 508.290,345.742 509.111,346.000 C 509.932,346.258 511.185,346.561 512.000,346.545 C 512.815,346.530 513.333,346.183 514.000,345.906 C 514.667,345.629 515.333,345.290 516.000,344.883 C 516.667,344.476 517.367,343.945 518.000,343.464 C 518.633,342.983 519.285,342.411 519.796,342.000 C 520.306,341.589 520.528,341.434 521.062,341.000 C 521.596,340.566 522.406,339.898 523.000,339.398 C 523.594,338.898 524.126,338.432 524.626,338.000 C 525.126,337.568 525.438,337.292 526.000,336.806 C 526.562,336.319 527.461,335.549 528.000,335.082 C 528.539,334.614 528.737,334.432 529.237,334.000 C 529.737,333.568 530.407,332.991 531.000,332.491 C 531.593,331.991 532.289,331.415 532.795,331.000 C 533.301,330.585 533.502,330.436 534.036,330.000 C 534.571,329.564 535.402,328.884 536.000,328.384 C 536.598,327.884 537.122,327.423 537.622,327.000 C 538.122,326.577 538.437,326.302 539.000,325.846 C 539.563,325.389 540.422,324.736 541.000,324.262 C 541.578,323.787 541.966,323.431 542.466,323.000 C 542.966,322.569 543.411,322.173 544.000,321.676 C 544.589,321.179 545.456,320.465 546.000,320.018 C 546.544,319.572 546.762,319.404 547.262,319.000 C 547.762,318.596 548.386,318.097 549.000,317.597 C 549.614,317.097 550.419,316.433 550.949,316.000 C 551.479,315.567 551.673,315.422 552.181,315.000 C 552.690,314.578 553.408,313.967 554.000,313.467 C 554.592,312.967 555.231,312.427 555.731,312.000 C 556.231,311.573 556.455,311.353 557.000,310.906 C 557.545,310.459 558.401,309.803 559.000,309.319 C 559.599,308.835 560.095,308.423 560.595,308.000 C 561.095,307.577 561.433,307.257 562.000,306.783 C 562.567,306.309 563.444,305.620 564.000,305.156 C 564.556,304.692 564.833,304.428 565.333,304.000 C 565.833,303.572 566.394,303.087 567.000,302.587 C 567.606,302.087 568.434,301.431 568.968,301.000 C 569.503,300.569 569.704,300.421 570.210,300.000 C 570.715,299.579 571.413,298.973 572.000,298.473 C 572.587,297.973 573.231,297.439 573.731,297.000 C 574.231,296.561 574.455,296.320 575.000,295.838 C 575.545,295.355 576.450,294.578 577.000,294.105 C 577.550,293.632 577.802,293.426 578.302,293.000 C 578.802,292.574 579.408,292.050 580.000,291.550 C 580.592,291.050 581.342,290.425 581.855,290.000 C 582.368,289.575 582.553,289.462 583.077,289.000 C 583.601,288.538 584.451,287.729 585.000,287.229 C 585.549,286.729 585.869,286.403 586.369,286.000 C 586.869,285.597 587.228,285.099 588.000,284.809 C 588.772,284.519 590.057,284.226 591.000,284.258 C 591.943,284.290 592.986,284.710 593.657,285.000 C 594.328,285.290 594.468,285.562 595.025,286.000 C 595.582,286.438 596.401,287.126 597.000,287.626 C 597.599,288.126 598.119,288.573 598.619,289.000 C 599.119,289.427 599.437,289.714 600.000,290.186 C 600.563,290.658 601.440,291.364 602.000,291.833 C 602.560,292.302 602.862,292.573 603.362,293.000 C 603.862,293.427 604.403,293.897 605.000,294.397 C 605.597,294.897 606.429,295.566 606.943,296.000 C 607.458,296.434 607.577,296.554 608.087,297.000 C 608.596,297.446 609.425,298.176 610.000,298.676 C 610.575,299.176 611.038,299.566 611.538,300.000 C 612.038,300.434 612.423,300.802 613.000,301.281 C 613.577,301.761 614.434,302.424 615.000,302.877 C 615.566,303.331 615.894,303.581 616.394,304.000 C 616.894,304.419 617.403,304.889 618.000,305.389 C 618.597,305.889 619.451,306.565 619.977,307.000 C 620.502,307.435 620.647,307.569 621.151,308.000 C 621.655,308.431 622.423,309.085 623.000,309.585 C 623.577,310.085 624.114,310.572 624.614,311.000 C 625.114,311.428 625.436,311.694 626.000,312.155 C 626.564,312.615 627.422,313.289 628.000,313.763 C 628.578,314.237 628.970,314.572 629.470,315.000 C 629.970,315.428 630.412,315.838 631.000,316.329 C 631.588,316.821 632.457,317.504 633.000,317.949 C 633.543,318.395 633.756,318.574 634.256,319.000 C 634.756,319.426 635.408,320.003 636.000,320.503 C 636.592,321.003 637.305,321.572 637.805,322.000 C 638.305,322.428 638.468,322.603 639.000,323.070 C 639.532,323.537 640.431,324.312 641.000,324.800 C 641.569,325.288 641.916,325.581 642.416,326.000 C 642.916,326.419 643.403,326.837 644.000,327.314 C 644.597,327.791 645.438,328.413 646.000,328.860 C 646.562,329.308 646.870,329.583 647.370,330.000 C 647.870,330.417 648.396,330.865 649.000,331.365 C 649.604,331.865 650.465,332.561 650.996,333.000 C 651.528,333.439 651.688,333.577 652.189,334.000 C 652.689,334.423 653.412,335.036 654.000,335.536 C 654.588,336.036 655.217,336.566 655.717,337.000 C 656.217,337.434 656.453,337.664 657.000,338.138 C 657.547,338.611 658.441,339.365 659.000,339.842 C 659.559,340.319 659.856,340.573 660.356,341.000 C 660.856,341.427 661.393,341.909 662.000,342.404 C 662.607,342.898 663.458,343.535 664.000,343.968 C 664.542,344.401 664.752,344.584 665.252,345.000 C 665.752,345.416 666.412,345.964 667.000,346.464 C 667.588,346.964 668.277,347.573 668.777,348.000 C 669.277,348.427 669.463,348.586 670.000,349.028 C 670.537,349.470 671.420,350.157 672.000,350.652 C 672.580,351.148 672.982,351.558 673.482,352.000 C 673.982,352.442 674.414,352.810 675.000,353.302 C 675.586,353.794 676.458,354.503 677.000,354.952 C 677.542,355.402 677.922,355.547 678.255,356.000 C 678.588,356.453 679.209,357.276 679.000,357.670 C 678.791,358.065 677.833,358.241 677.000,358.367 C 676.167,358.493 675.000,358.406 674.000,358.426 C 673.000,358.447 672.000,358.476 671.000,358.493 C 670.000,358.509 669.000,358.521 668.000,358.528 C 667.000,358.534 666.000,358.530 665.000,358.531 C 664.000,358.531 663.000,358.532 662.000,358.533 C 661.000,358.533 660.000,358.532 659.000,358.534 C 658.000,358.535 657.000,358.541 656.000,358.545 C 655.000,358.549 654.000,358.554 653.000,358.557 C 652.000,358.560 651.000,358.562 650.000,358.563 C 649.000,358.564 648.000,358.564 647.000,358.563 C 646.000,358.562 645.000,358.560 644.000,358.557 C 643.000,358.553 642.000,358.548 641.000,358.544 C 640.000,358.540 639.000,358.535 638.000,358.532 C 637.000,358.530 636.000,358.529 635.000,358.529 C 634.000,358.530 633.000,358.533 632.000,358.536 C 631.000,358.539 630.000,358.543 629.000,358.547 C 628.000,358.551 627.000,358.563 626.000,358.560 C 625.000,358.556 623.833,358.624 623.000,358.527 C 622.167,358.429 621.667,358.253 621.000,357.975 C 620.333,357.697 619.667,357.287 619.000,356.858 C 618.333,356.430 617.616,355.880 617.000,355.403 C 616.384,354.927 615.807,354.410 615.307,354.000 C 614.807,353.590 614.551,353.391 614.000,352.943 C 613.449,352.496 612.599,351.803 612.000,351.313 C 611.401,350.822 610.906,350.417 610.406,350.000 C 609.906,349.583 609.568,349.301 609.000,348.810 C 608.432,348.319 607.524,347.520 607.000,347.052 C 606.476,346.584 606.356,346.442 605.856,346.000 C 605.356,345.558 604.592,344.900 604.000,344.400 C 603.408,343.900 602.802,343.415 602.302,343.000 C 601.802,342.585 601.550,342.366 601.000,341.909 C 600.450,341.453 599.588,340.745 599.000,340.260 C 598.412,339.775 597.970,339.399 597.470,339.000 C 596.970,338.601 596.578,338.290 596.000,337.866 C 595.422,337.441 594.667,336.772 594.000,336.452 C 593.333,336.132 592.667,336.009 592.000,335.946 C 591.333,335.883 590.675,335.901 590.000,336.076 C 589.325,336.252 588.615,336.623 587.949,337.000 C 587.282,337.377 586.658,337.854 586.000,338.337 C 585.342,338.820 584.558,339.455 584.000,339.899 C 583.442,340.343 583.151,340.587 582.651,341.000 C 582.151,341.413 581.594,341.878 581.000,342.378 C 580.406,342.878 579.612,343.563 579.089,344.000 C 578.566,344.437 578.377,344.577 577.862,345.000 C 577.347,345.423 576.599,346.038 576.000,346.538 C 575.401,347.038 574.771,347.578 574.271,348.000 C 573.771,348.422 573.545,348.613 573.000,349.069 C 572.455,349.524 571.571,350.245 571.000,350.733 C 570.429,351.222 570.074,351.566 569.574,352.000 C 569.074,352.434 568.596,352.855 568.000,353.339 C 567.404,353.822 566.568,354.456 566.000,354.900 C 565.432,355.344 565.092,355.604 564.592,356.000 C 564.092,356.396 563.599,356.792 563.000,357.275 C 562.401,357.759 561.548,358.447 561.000,358.901 C 560.452,359.355 560.209,359.568 559.709,360.000 C 559.209,360.432 558.592,360.990 558.000,361.490 C 557.408,361.990 556.663,362.582 556.159,363.000 C 555.656,363.418 555.508,363.552 554.981,364.000 C 554.455,364.448 553.590,365.190 553.000,365.690 C 552.410,366.190 551.941,366.574 551.441,367.000 C 550.941,367.426 550.574,367.764 550.000,368.243 C 549.426,368.723 548.556,369.419 548.000,369.879 C 547.444,370.338 547.167,370.581 546.667,371.000 C 546.167,371.419 545.604,371.892 545.000,372.392 C 544.396,372.892 543.568,373.565 543.040,374.000 C 542.512,374.435 542.339,374.578 541.833,375.000 C 541.326,375.422 540.592,376.034 540.000,376.534 C 539.408,377.034 538.782,377.568 538.282,378.000 C 537.782,378.432 537.547,378.668 537.000,379.126 C 536.453,379.585 535.575,380.274 535.000,380.753 C 534.425,381.232 534.048,381.580 533.548,382.000 C 533.048,382.420 532.591,382.797 532.000,383.273 C 531.409,383.750 530.564,384.405 530.000,384.860 C 529.436,385.314 529.115,385.582 528.615,386.000 C 528.115,386.418 527.603,386.872 527.000,387.366 C 526.397,387.860 525.545,388.526 525.000,388.965 C 524.455,389.403 524.231,389.581 523.731,390.000 C 523.231,390.419 522.575,390.978 522.000,391.478 C 521.425,391.978 520.782,392.557 520.282,393.000 C 519.782,393.443 519.547,393.675 519.000,394.135 C 518.453,394.594 517.611,395.281 517.000,395.759 C 516.389,396.236 515.885,396.626 515.334,397.000 C 514.784,397.374 514.086,397.770 513.697,398.000 C 513.308,398.230 513.616,398.332 513.000,398.379 Z"/>
<path fill="#ececec" d="M 471.000,416.002 C 470.500,416.003 469.500,416.002 469.000,416.001 C 468.500,416.001 468.500,416.001 468.000,415.999 C 467.500,415.997 466.667,415.991 466.000,415.987 C 465.333,415.984 464.667,415.983 464.000,415.979 C 463.333,415.974 462.667,415.966 462.000,415.962 C 461.333,415.958 460.667,415.956 460.000,415.956 C 459.333,415.956 458.667,415.959 458.000,415.962 C 457.333,415.965 456.667,415.970 456.000,415.976 C 455.333,415.981 454.500,415.991 454.000,415.995 C 453.500,416.000 453.500,416.001 453.000,416.003 C 452.500,416.005 451.667,416.008 451.000,416.009 C 450.333,416.010 449.667,416.010 449.000,416.009 C 448.333,416.009 447.667,416.008 447.000,416.007 C 446.333,416.006 445.667,416.003 445.000,416.002 C 444.333,416.001 443.522,416.002 443.000,416.002 C 442.478,416.001 442.366,416.001 441.866,416.000 C 441.366,415.999 440.644,415.996 440.000,415.994 C 439.356,415.992 438.667,415.991 438.000,415.989 C 437.333,415.986 436.667,415.983 436.000,415.982 C 435.333,415.981 434.667,415.982 434.000,415.981 C 433.333,415.980 432.667,415.977 432.000,415.976 C 431.333,415.976 430.667,415.977 430.000,415.978 C 429.333,415.978 428.667,415.979 428.000,415.978 C 427.333,415.977 426.667,415.975 426.000,415.973 C 425.333,415.970 424.667,415.968 424.000,415.964 C 423.333,415.961 422.667,415.955 422.000,415.952 C 421.333,415.948 420.667,415.945 420.000,415.944 C 419.333,415.943 418.667,415.944 418.000,415.944 C 417.333,415.944 416.667,415.944 416.000,415.945 C 415.333,415.946 414.667,415.949 414.000,415.950 C 413.333,415.951 412.667,415.950 412.000,415.950 C 411.333,415.950 410.667,415.950 410.000,415.949 C 409.333,415.948 408.667,415.946 408.000,415.943 C 407.333,415.940 406.667,415.935 406.000,415.933 C 405.333,415.931 404.667,415.930 404.000,415.931 C 403.333,415.933 402.667,415.935 402.000,415.940 C 401.333,415.945 400.667,415.955 400.000,415.963 C 399.333,415.972 398.600,415.983 398.000,415.989 C 397.400,415.995 396.897,415.998 396.397,416.000 C 395.897,416.002 395.463,416.003 395.000,416.003 C 394.537,416.003 394.122,416.003 393.622,416.000 C 393.122,415.997 392.604,415.993 392.000,415.988 C 391.396,415.983 390.667,415.974 390.000,415.969 C 389.333,415.963 388.667,415.958 388.000,415.954 C 387.333,415.951 386.667,415.949 386.000,415.948 C 385.333,415.947 384.667,415.947 384.000,415.948 C 383.333,415.949 382.667,415.953 382.000,415.955 C 381.333,415.956 380.667,415.955 380.000,415.957 C 379.333,415.959 378.667,415.962 378.000,415.965 C 377.333,415.967 376.667,415.968 376.000,415.970 C 375.333,415.972 374.667,415.974 374.000,415.974 C 373.333,415.974 372.667,415.973 372.000,415.971 C 371.333,415.970 370.667,415.969 370.000,415.965 C 369.333,415.962 368.667,415.955 368.000,415.952 C 367.333,415.949 366.667,415.948 366.000,415.946 C 365.333,415.945 364.667,415.942 364.000,415.943 C 363.333,415.943 362.667,415.945 362.000,415.949 C 361.333,415.954 360.667,415.961 360.000,415.967 C 359.333,415.973 358.667,415.980 358.000,415.985 C 357.333,415.989 356.667,415.991 356.000,415.993 C 355.333,415.995 354.667,415.998 354.000,415.998 C 353.333,415.999 352.667,415.998 352.000,415.997 C 351.333,415.996 350.667,415.993 350.000,415.991 C 349.333,415.990 348.667,415.991 348.000,415.990 C 347.333,415.989 346.667,415.986 346.000,415.985 C 345.333,415.984 344.667,415.984 344.000,415.984 C 343.333,415.983 342.667,415.982 342.000,415.982 C 341.333,415.983 340.667,415.986 340.000,415.988 C 339.333,415.990 338.500,415.993 338.000,415.995 C 337.500,415.998 337.500,415.998 337.000,416.002 C 336.500,416.006 335.667,416.015 335.000,416.021 C 334.333,416.026 333.667,416.032 333.000,416.035 C 332.333,416.039 331.667,416.040 331.000,416.042 C 330.333,416.045 329.667,416.047 329.000,416.048 C 328.333,416.050 327.667,416.051 327.000,416.052 C 326.333,416.052 325.667,416.052 325.000,416.051 C 324.333,416.051 323.667,416.052 323.000,416.050 C 322.333,416.049 321.667,416.047 321.000,416.045 C 320.333,416.043 319.667,416.041 319.000,416.039 C 318.333,416.037 317.667,416.033 317.000,416.030 C 316.333,416.028 315.667,416.025 315.000,416.024 C 314.333,416.023 313.667,416.024 313.000,416.022 C 312.333,416.020 311.604,416.015 311.000,416.011 C 310.396,416.008 309.876,416.004 309.376,416.000 C 308.876,415.996 308.563,415.995 308.000,415.989 C 307.437,415.983 306.667,415.975 306.000,415.964 C 305.333,415.952 304.667,415.939 304.000,415.919 C 303.333,415.898 302.667,415.880 302.000,415.842 C 301.333,415.803 300.667,415.823 300.000,415.687 C 299.333,415.551 298.483,415.306 298.000,415.025 C 297.517,414.744 297.345,414.338 297.100,414.000 C 296.855,413.662 296.646,413.500 296.530,413.000 C 296.414,412.500 296.431,411.667 296.402,411.000 C 296.374,410.333 296.370,409.667 296.357,409.000 C 296.344,408.333 296.332,407.667 296.325,407.000 C 296.317,406.333 296.312,405.667 296.311,405.000 C 296.310,404.333 296.314,403.667 296.318,403.000 C 296.323,402.333 296.330,401.667 296.339,401.000 C 296.347,400.333 296.361,399.667 296.370,399.000 C 296.378,398.333 296.385,397.667 296.390,397.000 C 296.394,396.333 296.396,395.667 296.397,395.000 C 296.398,394.333 296.395,393.667 296.395,393.000 C 296.395,392.333 296.396,391.667 296.397,391.000 C 296.399,390.333 296.401,389.667 296.405,389.000 C 296.409,388.333 296.416,387.667 296.420,387.000 C 296.424,386.333 296.428,385.667 296.430,385.000 C 296.431,384.333 296.437,383.667 296.431,383.000 C 296.424,382.333 296.342,381.667 296.393,381.000 C 296.443,380.333 296.547,379.500 296.736,379.000 C 296.924,378.500 297.151,378.333 297.524,378.000 C 297.896,377.667 298.558,377.196 298.970,377.000 C 299.383,376.804 299.495,376.866 300.000,376.823 C 300.505,376.780 301.333,376.755 302.000,376.741 C 302.667,376.726 303.333,376.738 304.000,376.738 C 304.667,376.738 305.333,376.741 306.000,376.742 C 306.667,376.742 307.333,376.742 308.000,376.740 C 308.667,376.739 309.333,376.734 310.000,376.730 C 310.667,376.726 311.333,376.719 312.000,376.716 C 312.667,376.712 313.333,376.710 314.000,376.709 C 314.667,376.708 315.333,376.708 316.000,376.709 C 316.667,376.710 317.333,376.713 318.000,376.715 C 318.667,376.717 319.333,376.721 320.000,376.723 C 320.667,376.724 321.333,376.724 322.000,376.724 C 322.667,376.724 323.333,376.724 324.000,376.723 C 324.667,376.721 325.333,376.718 326.000,376.715 C 326.667,376.712 327.333,376.708 328.000,376.706 C 328.667,376.704 329.333,376.703 330.000,376.702 C 330.667,376.700 331.333,376.698 332.000,376.699 C 332.667,376.700 333.333,376.702 334.000,376.706 C 334.667,376.709 335.333,376.714 336.000,376.718 C 336.667,376.721 337.333,376.725 338.000,376.728 C 338.667,376.731 339.333,376.733 340.000,376.734 C 340.667,376.735 341.333,376.734 342.000,376.734 C 342.667,376.733 343.333,376.733 344.000,376.732 C 344.667,376.731 345.333,376.728 346.000,376.728 C 346.667,376.728 347.333,376.730 348.000,376.731 C 348.667,376.732 349.333,376.732 350.000,376.732 C 350.667,376.732 351.333,376.731 352.000,376.730 C 352.667,376.730 353.333,376.731 354.000,376.730 C 354.667,376.729 355.333,376.727 356.000,376.726 C 356.667,376.724 357.333,376.723 358.000,376.721 C 358.667,376.718 359.333,376.714 360.000,376.712 C 360.667,376.710 361.333,376.710 362.000,376.709 C 362.667,376.709 363.333,376.708 364.000,376.710 C 364.667,376.711 365.333,376.715 366.000,376.718 C 366.667,376.721 367.333,376.724 368.000,376.728 C 368.667,376.732 369.333,376.738 370.000,376.741 C 370.667,376.743 371.333,376.742 372.000,376.743 C 372.667,376.744 373.333,376.746 374.000,376.746 C 374.667,376.746 375.333,376.744 376.000,376.743 C 376.667,376.742 377.333,376.742 378.000,376.742 C 378.667,376.742 379.333,376.742 380.000,376.743 C 380.667,376.744 381.333,376.745 382.000,376.747 C 382.667,376.749 383.333,376.754 384.000,376.757 C 384.667,376.760 385.333,376.763 386.000,376.765 C 386.667,376.766 387.333,376.766 388.000,376.766 C 388.667,376.765 389.333,376.764 390.000,376.761 C 390.667,376.759 391.333,376.754 392.000,376.751 C 392.667,376.748 393.333,376.745 394.000,376.742 C 394.667,376.740 395.333,376.738 396.000,376.737 C 396.667,376.736 397.333,376.735 398.000,376.735 C 398.667,376.736 399.333,376.738 400.000,376.739 C 400.667,376.740 401.333,376.740 402.000,376.740 C 402.667,376.740 403.333,376.740 404.000,376.740 C 404.667,376.740 405.333,376.740 406.000,376.740 C 406.667,376.740 407.333,376.740 408.000,376.740 C 408.667,376.740 409.333,376.740 410.000,376.740 C 410.667,376.740 411.333,376.739 412.000,376.740 C 412.667,376.741 413.333,376.743 414.000,376.743 C 414.667,376.744 415.333,376.744 416.000,376.744 C 416.667,376.744 417.333,376.746 418.000,376.745 C 418.667,376.745 419.333,376.744 420.000,376.742 C 420.667,376.741 421.333,376.737 422.000,376.735 C 422.667,376.733 423.333,376.730 424.000,376.728 C 424.667,376.726 425.333,376.724 426.000,376.724 C 426.667,376.723 427.333,376.725 428.000,376.727 C 428.667,376.728 429.333,376.729 430.000,376.733 C 430.667,376.736 431.333,376.743 432.000,376.747 C 432.667,376.751 433.333,376.754 434.000,376.756 C 434.667,376.759 435.333,376.760 436.000,376.760 C 436.667,376.760 437.333,376.754 438.000,376.754 C 438.667,376.754 439.333,376.741 440.000,376.761 C 440.667,376.780 441.500,376.792 442.000,376.871 C 442.500,376.949 442.612,377.044 443.000,377.232 C 443.388,377.420 443.902,377.705 444.327,378.000 C 444.753,378.295 445.157,378.667 445.556,379.000 C 445.954,379.333 446.321,379.667 446.718,380.000 C 447.115,380.333 447.558,380.685 447.938,381.000 C 448.318,381.315 448.656,381.597 449.000,381.892 C 449.344,382.186 449.667,382.475 450.000,382.767 C 450.333,383.059 450.667,383.352 451.000,383.643 C 451.333,383.935 451.667,384.235 452.000,384.516 C 452.333,384.797 452.667,385.056 453.000,385.327 C 453.333,385.598 453.666,385.863 454.000,386.142 C 454.334,386.421 454.632,386.690 455.003,387.000 C 455.374,387.310 455.821,387.667 456.227,388.000 C 456.634,388.333 457.040,388.667 457.443,389.000 C 457.846,389.333 458.242,389.667 458.644,390.000 C 459.046,390.333 459.461,390.675 459.854,391.000 C 460.246,391.325 460.642,391.650 461.000,391.949 C 461.358,392.249 461.667,392.502 462.000,392.796 C 462.333,393.089 462.667,393.404 463.000,393.711 C 463.333,394.018 463.667,394.329 464.000,394.637 C 464.333,394.946 464.667,395.255 465.000,395.562 C 465.333,395.870 465.667,396.179 466.000,396.480 C 466.333,396.782 466.667,397.075 467.000,397.370 C 467.333,397.664 467.667,397.970 468.000,398.248 C 468.333,398.525 468.624,398.743 469.000,399.035 C 469.376,399.327 469.839,399.672 470.258,400.000 C 470.677,400.328 471.100,400.667 471.516,401.000 C 471.932,401.333 472.339,401.667 472.753,402.000 C 473.167,402.333 473.626,402.699 474.000,402.997 C 474.374,403.294 474.667,403.518 475.000,403.784 C 475.333,404.049 475.667,404.315 476.000,404.589 C 476.333,404.863 476.667,405.142 477.000,405.425 C 477.333,405.708 477.667,406.003 478.000,406.286 C 478.333,406.570 478.657,406.842 479.000,407.128 C 479.343,407.413 479.700,407.688 480.055,408.000 C 480.410,408.312 480.782,408.667 481.130,409.000 C 481.477,409.333 481.829,409.659 482.140,410.000 C 482.452,410.341 482.745,410.545 483.000,411.045 C 483.255,411.545 483.671,412.408 483.671,413.000 C 483.671,413.592 483.278,414.187 483.000,414.600 C 482.722,415.013 482.500,415.265 482.000,415.477 C 481.500,415.689 480.667,415.793 480.000,415.871 C 479.333,415.948 478.667,415.927 478.000,415.943 C 477.333,415.960 476.667,415.963 476.000,415.971 C 475.333,415.978 474.667,415.984 474.000,415.988 C 473.333,415.993 472.500,415.994 472.000,415.997 C 471.500,415.999 471.500,416.001 471.000,416.002 Z"/>
<path fill="#ececec" d="M 718.000,416.010 C 717.500,416.015 716.667,416.017 716.000,416.020 C 715.333,416.023 714.667,416.027 714.000,416.030 C 713.333,416.033 712.667,416.035 712.000,416.036 C 711.333,416.037 710.667,416.037 710.000,416.035 C 709.333,416.034 708.667,416.030 708.000,416.028 C 707.333,416.025 706.667,416.024 706.000,416.021 C 705.333,416.018 704.667,416.013 704.000,416.010 C 703.333,416.008 702.667,416.005 702.000,416.004 C 701.333,416.003 700.579,416.004 700.000,416.003 C 699.421,416.002 699.027,416.001 698.527,416.000 C 698.027,415.999 697.566,415.995 697.000,415.995 C 696.434,415.995 695.628,415.999 695.128,416.000 C 694.628,416.001 694.521,416.001 694.000,416.002 C 693.479,416.002 692.667,416.001 692.000,416.002 C 691.333,416.002 690.667,416.006 690.000,416.007 C 689.333,416.008 688.667,416.007 688.000,416.009 C 687.333,416.010 686.667,416.014 686.000,416.015 C 685.333,416.016 684.667,416.016 684.000,416.016 C 683.333,416.016 682.667,416.017 682.000,416.016 C 681.333,416.015 680.667,416.011 680.000,416.009 C 679.333,416.007 678.667,416.004 678.000,416.003 C 677.333,416.001 676.500,416.002 676.000,416.001 C 675.500,415.999 675.500,415.998 675.000,415.996 C 674.500,415.994 673.667,415.992 673.000,415.990 C 672.333,415.988 671.667,415.985 671.000,415.984 C 670.333,415.982 669.667,415.983 669.000,415.981 C 668.333,415.980 667.667,415.977 667.000,415.975 C 666.333,415.973 665.667,415.971 665.000,415.969 C 664.333,415.967 663.667,415.965 663.000,415.964 C 662.333,415.963 661.667,415.962 661.000,415.962 C 660.333,415.962 659.667,415.962 659.000,415.964 C 658.333,415.965 657.667,415.967 657.000,415.971 C 656.333,415.976 655.529,415.986 655.000,415.990 C 654.471,415.995 654.326,415.996 653.826,416.000 C 653.326,416.004 652.638,416.008 652.000,416.012 C 651.362,416.016 650.667,416.021 650.000,416.022 C 649.333,416.023 648.667,416.019 648.000,416.018 C 647.333,416.017 646.667,416.016 646.000,416.015 C 645.333,416.013 644.667,416.010 644.000,416.008 C 643.333,416.006 642.667,416.004 642.000,416.003 C 641.333,416.002 640.584,416.004 640.000,416.003 C 639.416,416.003 638.996,416.001 638.496,416.000 C 637.996,415.999 637.583,415.997 637.000,415.997 C 636.417,415.996 635.667,415.998 635.000,415.997 C 634.333,415.996 633.667,415.993 633.000,415.992 C 632.333,415.990 631.667,415.991 631.000,415.990 C 630.333,415.990 629.667,415.990 629.000,415.989 C 628.333,415.988 627.667,415.984 627.000,415.984 C 626.333,415.983 625.667,415.986 625.000,415.988 C 624.333,415.989 623.667,415.990 623.000,415.991 C 622.333,415.993 621.667,415.996 621.000,415.997 C 620.333,415.998 619.667,415.998 619.000,415.997 C 618.333,415.995 617.667,415.992 617.000,415.989 C 616.333,415.986 615.667,415.980 615.000,415.977 C 614.333,415.974 613.667,415.972 613.000,415.970 C 612.333,415.967 611.667,415.963 611.000,415.961 C 610.333,415.959 609.667,415.957 609.000,415.956 C 608.333,415.955 607.667,415.956 607.000,415.956 C 606.333,415.956 605.667,415.956 605.000,415.956 C 604.333,415.956 603.667,415.956 603.000,415.956 C 602.333,415.957 601.667,415.957 601.000,415.959 C 600.333,415.960 599.667,415.963 599.000,415.964 C 598.333,415.965 597.667,415.965 597.000,415.964 C 596.333,415.963 595.667,415.960 595.000,415.959 C 594.333,415.958 593.667,415.959 593.000,415.958 C 592.333,415.957 591.667,415.954 591.000,415.953 C 590.333,415.951 589.667,415.952 589.000,415.951 C 588.333,415.949 587.667,415.947 587.000,415.945 C 586.333,415.943 585.667,415.941 585.000,415.938 C 584.333,415.936 583.667,415.933 583.000,415.931 C 582.333,415.928 581.667,415.924 581.000,415.924 C 580.333,415.924 579.667,415.927 579.000,415.930 C 578.333,415.933 577.667,415.938 577.000,415.943 C 576.333,415.949 575.667,415.957 575.000,415.962 C 574.333,415.968 573.667,415.972 573.000,415.976 C 572.333,415.981 571.667,415.986 571.000,415.989 C 570.333,415.992 569.667,415.994 569.000,415.996 C 568.333,415.997 567.667,415.997 567.000,415.997 C 566.333,415.997 565.667,415.996 565.000,415.994 C 564.333,415.993 563.667,415.991 563.000,415.989 C 562.333,415.987 561.667,415.986 561.000,415.982 C 560.333,415.979 559.667,415.973 559.000,415.970 C 558.333,415.967 557.667,415.966 557.000,415.963 C 556.333,415.960 555.667,415.956 555.000,415.953 C 554.333,415.950 553.667,415.950 553.000,415.946 C 552.333,415.942 551.667,415.934 551.000,415.929 C 550.333,415.924 549.667,415.918 549.000,415.915 C 548.333,415.912 547.667,415.914 547.000,415.912 C 546.333,415.910 545.667,415.907 545.000,415.904 C 544.333,415.902 543.667,415.937 543.000,415.899 C 542.333,415.860 541.529,415.825 541.000,415.675 C 540.471,415.525 540.159,415.311 539.825,415.000 C 539.492,414.689 539.153,414.312 539.000,413.812 C 538.847,413.312 538.818,412.469 538.907,412.000 C 538.996,411.531 539.281,411.333 539.533,411.000 C 539.786,410.667 540.095,410.333 540.422,410.000 C 540.749,409.667 541.125,409.333 541.495,409.000 C 541.866,408.667 542.250,408.333 542.648,408.000 C 543.045,407.667 543.486,407.315 543.878,407.000 C 544.271,406.685 544.646,406.399 545.000,406.112 C 545.354,405.825 545.667,405.561 546.000,405.279 C 546.333,404.997 546.667,404.704 547.000,404.418 C 547.333,404.132 547.667,403.851 548.000,403.565 C 548.333,403.280 548.667,402.988 549.000,402.706 C 549.333,402.423 549.655,402.152 550.000,401.868 C 550.345,401.583 550.690,401.311 551.068,401.000 C 551.446,400.689 551.875,400.333 552.270,400.000 C 552.665,399.667 553.047,399.333 553.438,399.000 C 553.829,398.667 554.222,398.333 554.613,398.000 C 555.005,397.667 555.394,397.333 555.785,397.000 C 556.177,396.667 556.593,396.312 556.962,396.000 C 557.331,395.688 557.660,395.420 558.000,395.130 C 558.340,394.841 558.667,394.553 559.000,394.262 C 559.333,393.971 559.667,393.680 560.000,393.386 C 560.333,393.091 560.667,392.789 561.000,392.495 C 561.333,392.200 561.667,391.910 562.000,391.620 C 562.333,391.329 562.667,391.038 563.000,390.750 C 563.333,390.463 563.653,390.188 564.000,389.897 C 564.347,389.605 564.698,389.316 565.081,389.000 C 565.465,388.684 565.896,388.333 566.303,388.000 C 566.709,387.667 567.116,387.333 567.521,387.000 C 567.926,386.667 568.334,386.333 568.734,386.000 C 569.134,385.667 569.543,385.324 569.921,385.000 C 570.299,384.676 570.654,384.353 571.000,384.054 C 571.346,383.755 571.667,383.492 572.000,383.207 C 572.333,382.922 572.667,382.639 573.000,382.345 C 573.333,382.052 573.667,381.748 574.000,381.447 C 574.333,381.146 574.667,380.842 575.000,380.542 C 575.333,380.241 575.667,379.947 576.000,379.644 C 576.333,379.341 576.667,379.028 577.000,378.723 C 577.333,378.418 577.586,378.101 578.000,377.813 C 578.414,377.526 578.986,377.186 579.486,377.000 C 579.986,376.814 580.414,376.760 581.000,376.700 C 581.586,376.639 582.333,376.647 583.000,376.637 C 583.667,376.627 584.333,376.635 585.000,376.638 C 585.667,376.640 586.333,376.647 587.000,376.651 C 587.667,376.655 588.333,376.656 589.000,376.659 C 589.667,376.661 590.333,376.664 591.000,376.666 C 591.667,376.668 592.333,376.670 593.000,376.672 C 593.667,376.675 594.333,376.679 595.000,376.680 C 595.667,376.682 596.333,376.680 597.000,376.681 C 597.667,376.682 598.333,376.684 599.000,376.684 C 599.667,376.685 600.333,376.685 601.000,376.686 C 601.667,376.687 602.333,376.688 603.000,376.690 C 603.667,376.692 604.333,376.696 605.000,376.699 C 605.667,376.702 606.333,376.706 607.000,376.709 C 607.667,376.711 608.333,376.711 609.000,376.712 C 609.667,376.712 610.333,376.713 611.000,376.712 C 611.667,376.712 612.333,376.710 613.000,376.708 C 613.667,376.707 614.333,376.706 615.000,376.703 C 615.667,376.701 616.333,376.696 617.000,376.694 C 617.667,376.692 618.333,376.691 619.000,376.692 C 619.667,376.693 620.333,376.696 621.000,376.699 C 621.667,376.702 622.333,376.706 623.000,376.709 C 623.667,376.712 624.333,376.714 625.000,376.718 C 625.667,376.721 626.333,376.725 627.000,376.728 C 627.667,376.730 628.333,376.731 629.000,376.731 C 629.667,376.731 630.333,376.729 631.000,376.728 C 631.667,376.726 632.333,376.724 633.000,376.722 C 633.667,376.721 634.333,376.718 635.000,376.719 C 635.667,376.719 636.333,376.722 637.000,376.723 C 637.667,376.725 638.333,376.726 639.000,376.727 C 639.667,376.729 640.333,376.732 641.000,376.733 C 641.667,376.734 642.333,376.735 643.000,376.734 C 643.667,376.733 644.333,376.732 645.000,376.730 C 645.667,376.728 646.333,376.725 647.000,376.721 C 647.667,376.718 648.333,376.713 649.000,376.710 C 649.667,376.706 650.333,376.703 651.000,376.702 C 651.667,376.700 652.333,376.701 653.000,376.702 C 653.667,376.703 654.333,376.706 655.000,376.709 C 655.667,376.711 656.333,376.715 657.000,376.718 C 657.667,376.721 658.333,376.725 659.000,376.727 C 659.667,376.729 660.333,376.729 661.000,376.730 C 661.667,376.730 662.333,376.731 663.000,376.731 C 663.667,376.732 664.333,376.732 665.000,376.731 C 665.667,376.730 666.333,376.728 667.000,376.728 C 667.667,376.727 668.333,376.728 669.000,376.728 C 669.667,376.727 670.333,376.725 671.000,376.724 C 671.667,376.722 672.333,376.719 673.000,376.718 C 673.667,376.717 674.333,376.717 675.000,376.717 C 675.667,376.716 676.333,376.715 677.000,376.713 C 677.667,376.712 678.333,376.709 679.000,376.709 C 679.667,376.708 680.333,376.710 681.000,376.711 C 681.667,376.711 682.333,376.710 683.000,376.712 C 683.667,376.713 684.333,376.718 685.000,376.721 C 685.667,376.724 686.333,376.727 687.000,376.730 C 687.667,376.733 688.333,376.737 689.000,376.739 C 689.667,376.742 690.333,376.745 691.000,376.745 C 691.667,376.746 692.333,376.744 693.000,376.743 C 693.667,376.741 694.333,376.739 695.000,376.736 C 695.667,376.733 696.333,376.728 697.000,376.726 C 697.667,376.723 698.333,376.721 699.000,376.721 C 699.667,376.721 700.333,376.723 701.000,376.726 C 701.667,376.728 702.333,376.732 703.000,376.736 C 703.667,376.740 704.333,376.746 705.000,376.750 C 705.667,376.754 706.333,376.759 707.000,376.761 C 707.667,376.762 708.333,376.762 709.000,376.761 C 709.667,376.759 710.333,376.755 711.000,376.753 C 711.667,376.750 712.333,376.745 713.000,376.743 C 713.667,376.741 714.333,376.739 715.000,376.739 C 715.667,376.739 716.333,376.740 717.000,376.743 C 717.667,376.746 718.333,376.754 719.000,376.757 C 719.667,376.760 720.333,376.751 721.000,376.762 C 721.667,376.773 722.500,376.758 723.000,376.824 C 723.500,376.889 723.638,376.957 724.000,377.153 C 724.362,377.349 724.836,377.642 725.169,378.000 C 725.503,378.358 725.798,378.798 726.000,379.298 C 726.202,379.798 726.322,380.383 726.379,381.000 C 726.437,381.617 726.350,382.333 726.345,383.000 C 726.339,383.667 726.345,384.333 726.346,385.000 C 726.347,385.667 726.348,386.333 726.348,387.000 C 726.348,387.667 726.347,388.333 726.347,389.000 C 726.346,389.667 726.346,390.333 726.346,391.000 C 726.346,391.667 726.347,392.333 726.347,393.000 C 726.347,393.667 726.347,394.333 726.347,395.000 C 726.348,395.667 726.348,396.333 726.348,397.000 C 726.349,397.667 726.347,398.333 726.349,399.000 C 726.351,399.667 726.357,400.333 726.360,401.000 C 726.363,401.667 726.366,402.333 726.367,403.000 C 726.369,403.667 726.370,404.333 726.371,405.000 C 726.372,405.667 726.375,406.333 726.374,407.000 C 726.373,407.667 726.369,408.333 726.362,409.000 C 726.355,409.667 726.368,410.333 726.334,411.000 C 726.301,411.667 726.281,412.500 726.161,413.000 C 726.042,413.500 725.861,413.667 725.619,414.000 C 725.377,414.333 725.146,414.686 724.709,415.000 C 724.273,415.314 723.618,415.724 723.000,415.884 C 722.382,416.043 721.667,415.939 721.000,415.957 C 720.333,415.976 719.500,415.984 719.000,415.993 C 718.500,416.002 718.500,416.006 718.000,416.010 Z"/>
<path fill="#ececec" d="M 514.000,764.002 C 513.494,764.011 511.833,764.056 511.000,764.054 C 510.167,764.052 509.833,764.047 509.000,763.991 C 508.167,763.934 507.000,763.817 506.000,763.716 C 505.000,763.616 503.848,763.506 503.000,763.386 C 502.152,763.267 501.748,763.176 500.914,763.000 C 500.081,762.824 498.819,762.562 498.000,762.331 C 497.181,762.099 496.667,761.881 496.000,761.610 C 495.333,761.338 494.667,761.137 494.000,760.703 C 493.333,760.269 492.500,759.592 492.000,759.008 C 491.500,758.425 491.204,757.871 491.000,757.203 C 490.796,756.535 490.818,755.867 490.776,755.000 C 490.735,754.133 490.757,753.000 490.753,752.000 C 490.748,751.000 490.749,750.000 490.748,749.000 C 490.747,748.000 490.748,747.000 490.747,746.000 C 490.746,745.000 490.744,744.000 490.743,743.000 C 490.743,742.000 490.743,741.000 490.743,740.000 C 490.743,739.000 490.744,738.000 490.743,737.000 C 490.742,736.000 490.739,735.000 490.736,734.000 C 490.733,733.000 490.729,732.000 490.725,731.000 C 490.720,730.000 490.713,729.000 490.709,728.000 C 490.704,727.000 490.699,726.000 490.698,725.000 C 490.696,724.000 490.698,723.000 490.699,722.000 C 490.701,721.000 490.704,720.000 490.706,719.000 C 490.709,718.000 490.711,717.000 490.716,716.000 C 490.721,715.000 490.732,714.000 490.738,713.000 C 490.744,712.000 490.748,711.000 490.752,710.000 C 490.756,709.000 490.761,708.000 490.764,707.000 C 490.767,706.000 490.769,705.000 490.768,704.000 C 490.768,703.000 490.766,702.000 490.760,701.000 C 490.755,700.000 490.746,699.000 490.734,698.000 C 490.723,697.000 490.701,696.000 490.691,695.000 C 490.681,694.000 490.674,693.000 490.675,692.000 C 490.675,691.000 490.687,690.000 490.693,689.000 C 490.700,688.000 490.709,687.000 490.715,686.000 C 490.720,685.000 490.723,684.000 490.724,683.000 C 490.726,682.000 490.722,681.000 490.722,680.000 C 490.721,679.000 490.720,678.000 490.722,677.000 C 490.725,676.000 490.733,675.000 490.738,674.000 C 490.743,673.000 490.751,672.000 490.753,671.000 C 490.754,670.000 490.754,669.000 490.749,668.000 C 490.743,667.000 490.731,666.000 490.720,665.000 C 490.709,664.000 490.688,663.000 490.684,662.000 C 490.680,661.000 490.686,660.000 490.695,659.000 C 490.704,658.000 490.725,657.000 490.736,656.000 C 490.747,655.000 490.758,654.000 490.760,653.000 C 490.763,652.000 490.758,651.000 490.752,650.000 C 490.745,649.000 490.729,648.000 490.721,647.000 C 490.713,646.000 490.708,645.000 490.705,644.000 C 490.701,643.000 490.701,642.000 490.699,641.000 C 490.696,640.000 490.694,639.000 490.690,638.000 C 490.686,637.000 490.679,636.000 490.674,635.000 C 490.668,634.000 490.661,633.000 490.656,632.000 C 490.651,631.000 490.645,630.000 490.644,629.000 C 490.643,628.000 490.648,627.000 490.650,626.000 C 490.653,625.000 490.657,624.000 490.661,623.000 C 490.664,622.000 490.668,621.000 490.672,620.000 C 490.675,619.000 490.681,618.000 490.684,617.000 C 490.686,616.000 490.685,615.000 490.688,614.000 C 490.690,613.000 490.695,612.000 490.699,611.000 C 490.703,610.000 490.711,609.000 490.713,608.000 C 490.716,607.000 490.717,606.000 490.714,605.000 C 490.711,604.000 490.705,603.000 490.697,602.000 C 490.690,601.000 490.678,600.000 490.670,599.000 C 490.662,598.000 490.653,597.000 490.651,596.000 C 490.649,595.000 490.655,594.000 490.657,593.000 C 490.659,592.000 490.662,591.000 490.665,590.000 C 490.668,589.000 490.672,588.000 490.675,587.000 C 490.678,586.000 490.680,585.000 490.682,584.000 C 490.683,583.000 490.685,582.000 490.685,581.000 C 490.684,580.000 490.682,579.000 490.679,578.000 C 490.677,577.000 490.673,576.000 490.669,575.000 C 490.665,574.000 490.660,573.000 490.656,572.000 C 490.651,571.000 490.646,570.000 490.641,569.000 C 490.636,568.000 490.627,567.000 490.626,566.000 C 490.625,565.000 490.630,564.000 490.636,563.000 C 490.642,562.000 490.654,561.000 490.662,560.000 C 490.670,559.000 490.678,558.000 490.682,557.000 C 490.685,556.000 490.685,555.000 490.683,554.000 C 490.682,553.000 490.676,552.000 490.673,551.000 C 490.671,550.000 490.666,549.000 490.668,548.000 C 490.669,547.000 490.679,546.000 490.682,545.000 C 490.686,544.000 490.687,543.000 490.687,542.000 C 490.687,541.000 490.687,540.000 490.682,539.000 C 490.678,538.000 490.665,537.000 490.658,536.000 C 490.651,535.000 490.645,534.000 490.642,533.000 C 490.639,532.000 490.641,531.000 490.641,530.000 C 490.641,529.000 490.642,528.000 490.644,527.000 C 490.646,526.000 490.652,525.000 490.654,524.000 C 490.655,523.000 490.654,522.000 490.654,521.000 C 490.654,520.000 490.653,519.000 490.654,518.000 C 490.656,517.000 490.659,516.000 490.664,515.000 C 490.669,514.000 490.680,513.000 490.684,512.000 C 490.688,511.000 490.690,510.000 490.689,509.000 C 490.687,508.000 490.682,507.000 490.675,506.000 C 490.668,505.000 490.656,504.000 490.648,503.000 C 490.640,502.000 490.631,501.000 490.627,500.000 C 490.623,499.000 490.625,498.000 490.625,497.000 C 490.624,496.000 490.622,495.000 490.624,494.000 C 490.627,493.000 490.634,492.000 490.641,491.000 C 490.648,490.000 490.660,489.000 490.667,488.000 C 490.674,487.000 490.678,486.000 490.682,485.000 C 490.686,484.000 490.689,483.000 490.692,482.000 C 490.695,481.000 490.700,480.000 490.702,479.000 C 490.703,478.000 490.701,477.000 490.699,476.000 C 490.697,475.000 490.695,474.000 490.691,473.000 C 490.688,472.000 490.679,471.000 490.677,470.000 C 490.675,469.000 490.676,468.000 490.680,467.000 C 490.683,466.000 490.694,465.000 490.698,464.000 C 490.701,463.000 490.704,462.000 490.703,461.000 C 490.702,460.000 490.698,459.000 490.691,458.000 C 490.685,457.000 490.672,456.000 490.664,455.000 C 490.657,454.000 490.652,453.000 490.649,452.000 C 490.646,451.000 490.647,450.000 490.646,449.000 C 490.645,448.000 490.643,447.000 490.644,446.000 C 490.644,445.000 490.648,444.000 490.651,443.000 C 490.654,442.000 490.604,440.885 490.662,440.000 C 490.720,439.115 490.658,438.354 491.000,437.688 C 491.342,437.021 492.046,436.372 492.713,436.000 C 493.380,435.628 494.119,435.599 495.000,435.456 C 495.881,435.313 497.167,435.239 498.000,435.142 C 498.833,435.045 499.167,434.971 500.000,434.872 C 500.833,434.773 502.000,434.638 503.000,434.548 C 504.000,434.458 505.000,434.405 506.000,434.332 C 507.000,434.259 508.000,434.158 509.000,434.111 C 510.000,434.064 511.000,434.041 512.000,434.049 C 513.000,434.058 514.000,434.106 515.000,434.162 C 516.000,434.218 517.000,434.317 518.000,434.387 C 519.000,434.456 520.000,434.481 521.000,434.578 C 522.000,434.675 523.167,434.853 524.000,434.971 C 524.833,435.089 525.167,435.149 526.000,435.288 C 526.833,435.426 528.238,435.514 529.000,435.800 C 529.762,436.085 530.130,436.467 530.571,437.000 C 531.011,437.533 531.447,438.167 531.643,439.000 C 531.839,439.833 531.725,441.000 531.748,442.000 C 531.771,443.000 531.773,444.000 531.779,445.000 C 531.786,446.000 531.788,447.000 531.788,448.000 C 531.789,449.000 531.786,450.000 531.782,451.000 C 531.777,452.000 531.766,453.000 531.763,454.000 C 531.760,455.000 531.762,456.000 531.765,457.000 C 531.768,458.000 531.780,459.000 531.783,460.000 C 531.786,461.000 531.783,462.000 531.781,463.000 C 531.779,464.000 531.775,465.000 531.769,466.000 C 531.763,467.000 531.750,468.000 531.744,469.000 C 531.737,470.000 531.733,471.000 531.730,472.000 C 531.728,473.000 531.729,474.000 531.729,475.000 C 531.729,476.000 531.728,477.000 531.731,478.000 C 531.734,479.000 531.741,480.000 531.745,481.000 C 531.748,482.000 531.751,483.000 531.751,484.000 C 531.751,485.000 531.744,486.000 531.744,487.000 C 531.745,488.000 531.751,489.000 531.755,490.000 C 531.760,491.000 531.762,492.000 531.769,493.000 C 531.775,494.000 531.785,495.000 531.793,496.000 C 531.800,497.000 531.810,498.000 531.812,499.000 C 531.814,500.000 531.809,501.000 531.805,502.000 C 531.801,503.000 531.794,504.000 531.788,505.000 C 531.783,506.000 531.776,507.000 531.773,508.000 C 531.771,509.000 531.772,510.000 531.771,511.000 C 531.771,512.000 531.773,513.000 531.772,514.000 C 531.772,515.000 531.771,516.000 531.769,517.000 C 531.766,518.000 531.759,519.000 531.756,520.000 C 531.754,521.000 531.752,522.000 531.752,523.000 C 531.753,524.000 531.754,525.000 531.760,526.000 C 531.766,527.000 531.782,528.000 531.789,529.000 C 531.797,530.000 531.802,531.000 531.804,532.000 C 531.806,533.000 531.802,534.000 531.800,535.000 C 531.798,536.000 531.793,537.000 531.791,538.000 C 531.788,539.000 531.789,540.000 531.787,541.000 C 531.786,542.000 531.783,543.000 531.782,544.000 C 531.781,545.000 531.781,546.000 531.779,547.000 C 531.776,548.000 531.766,549.000 531.766,550.000 C 531.765,551.000 531.772,552.000 531.775,553.000 C 531.777,554.000 531.778,555.000 531.779,556.000 C 531.781,557.000 531.783,558.000 531.783,559.000 C 531.783,560.000 531.785,561.000 531.781,562.000 C 531.777,563.000 531.768,564.000 531.760,565.000 C 531.753,566.000 531.744,567.000 531.738,568.000 C 531.733,569.000 531.728,570.000 531.725,571.000 C 531.723,572.000 531.723,573.000 531.725,574.000 C 531.728,575.000 531.734,576.000 531.738,577.000 C 531.743,578.000 531.749,579.000 531.751,580.000 C 531.753,581.000 531.747,582.000 531.748,583.000 C 531.750,584.000 531.758,585.000 531.760,586.000 C 531.763,587.000 531.764,588.000 531.761,589.000 C 531.758,590.000 531.751,591.000 531.744,592.000 C 531.737,593.000 531.727,594.000 531.719,595.000 C 531.710,596.000 531.698,597.000 531.693,598.000 C 531.689,599.000 531.690,600.000 531.690,601.000 C 531.691,602.000 531.695,603.000 531.698,604.000 C 531.702,605.000 531.709,606.000 531.713,607.000 C 531.718,608.000 531.725,609.000 531.726,610.000 C 531.728,611.000 531.727,612.000 531.724,613.000 C 531.721,614.000 531.713,615.000 531.709,616.000 C 531.704,617.000 531.699,618.000 531.698,619.000 C 531.697,620.000 531.700,621.000 531.705,622.000 C 531.709,623.000 531.719,624.000 531.724,625.000 C 531.729,626.000 531.733,627.000 531.735,628.000 C 531.736,629.000 531.730,630.000 531.730,631.000 C 531.731,632.000 531.736,633.000 531.738,634.000 C 531.740,635.000 531.743,636.000 531.743,637.000 C 531.743,638.000 531.741,639.000 531.738,640.000 C 531.736,641.000 531.731,642.000 531.726,643.000 C 531.722,644.000 531.715,645.000 531.709,646.000 C 531.704,647.000 531.697,648.000 531.694,649.000 C 531.690,650.000 531.687,651.000 531.688,652.000 C 531.690,653.000 531.697,654.000 531.703,655.000 C 531.709,656.000 531.717,657.000 531.722,658.000 C 531.727,659.000 531.731,660.000 531.734,661.000 C 531.737,662.000 531.738,663.000 531.741,664.000 C 531.744,665.000 531.750,666.000 531.752,667.000 C 531.753,668.000 531.754,669.000 531.751,670.000 C 531.748,671.000 531.741,672.000 531.734,673.000 C 531.728,674.000 531.718,675.000 531.711,676.000 C 531.704,677.000 531.696,678.000 531.691,679.000 C 531.686,680.000 531.682,681.000 531.681,682.000 C 531.680,683.000 531.684,684.000 531.686,685.000 C 531.689,686.000 531.693,687.000 531.694,688.000 C 531.695,689.000 531.696,690.000 531.693,691.000 C 531.691,692.000 531.681,693.000 531.678,694.000 C 531.675,695.000 531.677,696.000 531.678,697.000 C 531.679,698.000 531.683,699.000 531.685,700.000 C 531.687,701.000 531.691,702.000 531.692,703.000 C 531.694,704.000 531.696,705.000 531.694,706.000 C 531.692,707.000 531.685,708.000 531.681,709.000 C 531.677,710.000 531.672,711.000 531.670,712.000 C 531.668,713.000 531.668,714.000 531.670,715.000 C 531.672,716.000 531.676,717.000 531.681,718.000 C 531.686,719.000 531.696,720.000 531.700,721.000 C 531.705,722.000 531.707,723.000 531.706,724.000 C 531.705,725.000 531.696,726.000 531.694,727.000 C 531.691,728.000 531.690,729.000 531.690,730.000 C 531.690,731.000 531.689,732.000 531.692,733.000 C 531.695,734.000 531.704,735.000 531.710,736.000 C 531.717,737.000 531.730,738.000 531.732,739.000 C 531.734,740.000 531.728,741.000 531.723,742.000 C 531.719,743.000 531.709,744.000 531.704,745.000 C 531.700,746.000 531.694,747.000 531.696,748.000 C 531.697,749.000 531.707,750.000 531.714,751.000 C 531.720,752.000 531.753,753.000 531.737,754.000 C 531.720,755.000 531.787,756.167 531.614,757.000 C 531.441,757.833 531.132,758.414 530.697,759.000 C 530.261,759.586 529.616,760.105 529.000,760.517 C 528.384,760.929 527.667,761.204 527.000,761.473 C 526.333,761.742 525.833,761.907 525.000,762.132 C 524.167,762.357 522.833,762.617 522.000,762.824 C 521.167,763.030 520.833,763.225 520.000,763.371 C 519.167,763.516 517.994,763.591 517.000,763.696 C 516.006,763.801 514.535,763.949 514.035,764.000 C 513.535,764.051 514.506,763.993 514.000,764.002 Z"/>
<path fill="#ececec" d="M 284.000,601.079 C 283.167,601.189 281.333,601.451 280.000,601.537 C 278.667,601.624 277.333,601.643 276.000,601.597 C 274.667,601.550 273.167,601.447 272.000,601.259 C 270.833,601.071 270.000,600.761 269.000,600.469 C 268.000,600.178 267.000,599.881 266.000,599.508 C 265.000,599.135 263.873,598.647 263.000,598.229 C 262.127,597.812 261.596,597.536 260.762,597.000 C 259.929,596.464 258.794,595.630 258.000,595.014 C 257.206,594.399 256.667,593.932 256.000,593.305 C 255.333,592.678 254.643,591.969 254.000,591.251 C 253.357,590.534 252.684,589.709 252.140,589.000 C 251.597,588.291 251.254,587.833 250.738,587.000 C 250.221,586.167 249.499,584.878 249.043,584.000 C 248.586,583.122 248.340,582.643 248.000,581.730 C 247.660,580.817 247.145,579.475 247.000,578.520 C 246.855,577.565 246.759,576.753 247.132,576.000 C 247.505,575.247 248.262,574.421 249.240,574.000 C 250.218,573.579 251.873,573.643 253.000,573.473 C 254.127,573.303 254.833,573.215 256.000,572.978 C 257.167,572.742 258.833,572.340 260.000,572.056 C 261.167,571.773 262.000,571.558 263.000,571.276 C 264.000,570.993 265.000,570.687 266.000,570.362 C 267.000,570.037 268.000,569.695 269.000,569.324 C 270.000,568.952 271.075,568.523 272.000,568.135 C 272.925,567.748 273.716,567.386 274.550,567.000 C 275.383,566.614 276.092,566.261 277.000,565.821 C 277.908,565.381 279.076,564.832 280.000,564.362 C 280.924,563.892 281.710,563.459 282.543,563.000 C 283.376,562.541 284.158,562.106 285.000,561.606 C 285.842,561.106 286.762,560.531 287.595,560.000 C 288.429,559.469 289.261,558.921 290.000,558.421 C 290.739,557.921 291.246,557.570 292.030,557.000 C 292.814,556.430 293.875,555.631 294.704,555.000 C 295.532,554.369 296.284,553.788 297.000,553.216 C 297.716,552.644 298.333,552.131 299.000,551.567 C 299.667,551.003 300.325,550.427 301.000,549.833 C 301.675,549.238 302.353,548.639 303.051,548.000 C 303.748,547.361 304.513,546.667 305.186,546.000 C 305.859,545.333 306.452,544.676 307.087,544.000 C 307.723,543.324 308.348,542.658 309.000,541.946 C 309.652,541.235 310.333,540.491 311.000,539.731 C 311.667,538.971 312.351,538.174 313.000,537.386 C 313.649,536.597 314.325,535.731 314.892,535.000 C 315.459,534.269 315.884,533.690 316.402,533.000 C 316.920,532.310 317.400,531.677 318.000,530.858 C 318.600,530.039 319.438,528.897 320.000,528.087 C 320.562,527.278 320.869,526.770 321.369,526.000 C 321.869,525.230 322.490,524.303 323.000,523.470 C 323.510,522.637 323.932,521.895 324.432,521.000 C 324.932,520.105 325.546,518.935 326.000,518.101 C 326.454,517.268 326.701,516.850 327.153,516.000 C 327.604,515.150 328.234,513.931 328.709,513.000 C 329.184,512.069 329.600,511.249 330.000,510.415 C 330.400,509.582 330.710,508.903 331.107,508.000 C 331.504,507.097 331.965,506.000 332.382,505.000 C 332.800,504.000 333.216,503.000 333.610,502.000 C 334.004,501.000 334.369,500.000 334.746,499.000 C 335.123,498.000 335.509,497.000 335.870,496.000 C 336.231,495.000 336.575,494.000 336.912,493.000 C 337.250,492.000 337.574,491.000 337.896,490.000 C 338.219,489.000 338.548,488.000 338.846,487.000 C 339.144,486.000 339.415,485.000 339.683,484.000 C 339.951,483.000 340.216,482.000 340.451,481.000 C 340.687,480.000 340.875,479.167 341.096,478.000 C 341.317,476.833 341.570,475.167 341.777,474.000 C 341.984,472.833 342.144,472.167 342.338,471.000 C 342.531,469.833 342.757,468.167 342.938,467.000 C 343.119,465.833 343.286,465.167 343.426,464.000 C 343.565,462.833 343.678,461.273 343.773,460.000 C 343.869,458.727 343.918,457.530 344.000,456.363 C 344.082,455.196 344.201,454.227 344.267,453.000 C 344.332,451.773 344.362,450.333 344.394,449.000 C 344.427,447.667 344.456,446.333 344.460,445.000 C 344.464,443.667 344.372,442.333 344.419,441.000 C 344.467,439.667 344.313,437.902 344.743,437.000 C 345.173,436.098 345.957,435.835 347.000,435.586 C 348.043,435.337 349.667,435.519 351.000,435.505 C 352.333,435.491 353.667,435.503 355.000,435.501 C 356.333,435.499 357.667,435.496 359.000,435.495 C 360.333,435.494 361.667,435.496 363.000,435.495 C 364.333,435.494 365.667,435.489 367.000,435.487 C 368.333,435.485 369.667,435.487 371.000,435.483 C 372.333,435.479 373.667,435.475 375.000,435.464 C 376.333,435.454 377.814,435.333 379.000,435.422 C 380.186,435.511 381.363,435.404 382.113,436.000 C 382.864,436.596 383.263,437.833 383.503,439.000 C 383.744,440.167 383.547,441.667 383.557,443.000 C 383.566,444.333 383.563,445.667 383.561,447.000 C 383.558,448.333 383.552,449.667 383.543,451.000 C 383.533,452.333 383.532,453.667 383.503,455.000 C 383.475,456.333 383.444,457.667 383.374,459.000 C 383.304,460.333 383.186,461.833 383.082,463.000 C 382.978,464.167 382.855,464.833 382.751,466.000 C 382.647,467.167 382.585,468.727 382.460,470.000 C 382.335,471.273 382.145,472.472 382.000,473.639 C 381.855,474.805 381.757,475.826 381.590,477.000 C 381.424,478.174 381.190,479.515 381.000,480.682 C 380.810,481.849 380.648,482.947 380.448,484.000 C 380.248,485.053 380.042,485.833 379.802,487.000 C 379.561,488.167 379.244,489.833 379.005,491.000 C 378.766,492.167 378.601,493.000 378.367,494.000 C 378.133,495.000 377.854,496.000 377.599,497.000 C 377.345,498.000 377.107,498.979 376.840,500.000 C 376.574,501.021 376.307,502.039 376.000,503.128 C 375.693,504.217 375.333,505.456 375.000,506.534 C 374.667,507.612 374.333,508.572 374.000,509.596 C 373.667,510.620 373.333,511.698 373.000,512.679 C 372.667,513.660 372.333,514.561 372.000,515.480 C 371.667,516.398 371.354,517.268 371.000,518.188 C 370.646,519.108 370.271,520.031 369.879,521.000 C 369.487,521.969 369.070,523.000 368.646,524.000 C 368.221,525.000 367.774,526.038 367.333,527.000 C 366.892,527.962 366.409,528.936 366.000,529.770 C 365.591,530.603 365.328,531.128 364.880,532.000 C 364.431,532.872 363.788,534.093 363.308,535.000 C 362.828,535.907 362.458,536.607 362.000,537.440 C 361.542,538.274 361.060,539.153 360.560,540.000 C 360.060,540.847 359.515,541.686 359.000,542.520 C 358.485,543.353 357.971,544.200 357.471,545.000 C 356.971,545.800 356.541,546.486 356.000,547.319 C 355.459,548.153 354.759,549.220 354.223,550.000 C 353.687,550.780 353.319,551.247 352.782,552.000 C 352.245,552.753 351.613,553.684 351.000,554.517 C 350.387,555.351 349.688,556.253 349.104,557.000 C 348.520,557.747 348.038,558.333 347.495,559.000 C 346.952,559.667 346.426,560.323 345.843,561.000 C 345.261,561.677 344.641,562.362 344.000,563.064 C 343.359,563.766 342.667,564.510 342.000,565.211 C 341.333,565.913 340.667,566.568 340.000,567.272 C 339.333,567.975 338.667,568.733 338.000,569.431 C 337.333,570.129 336.667,570.798 336.000,571.459 C 335.333,572.119 334.667,572.758 334.000,573.392 C 333.333,574.027 332.667,574.643 332.000,575.266 C 331.333,575.889 330.704,576.508 330.000,577.131 C 329.296,577.753 328.570,578.355 327.774,579.000 C 326.979,579.645 326.025,580.387 325.229,581.000 C 324.433,581.613 323.705,582.141 323.000,582.681 C 322.295,583.220 321.730,583.682 321.000,584.235 C 320.270,584.788 319.454,585.417 318.621,586.000 C 317.788,586.583 316.770,587.230 316.000,587.732 C 315.230,588.233 314.833,588.498 314.000,589.010 C 313.167,589.523 311.848,590.310 311.000,590.808 C 310.152,591.306 309.745,591.553 308.912,592.000 C 308.078,592.447 306.985,592.991 306.000,593.489 C 305.015,593.986 303.871,594.566 303.000,594.985 C 302.129,595.404 301.610,595.635 300.776,596.000 C 299.943,596.365 298.963,596.799 298.000,597.174 C 297.037,597.549 296.000,597.914 295.000,598.249 C 294.000,598.584 293.000,598.878 292.000,599.182 C 291.000,599.487 290.167,599.792 289.000,600.075 C 287.833,600.358 285.833,600.713 285.000,600.880 C 284.167,601.048 284.833,600.970 284.000,601.079 Z"/>
<path fill="#ececec" d="M 348.000,653.025 C 346.833,653.157 345.333,653.310 344.000,653.349 C 342.667,653.389 341.167,653.355 340.000,653.261 C 338.833,653.168 338.104,653.000 337.000,652.790 C 335.896,652.580 334.405,652.298 333.374,652.000 C 332.343,651.702 331.710,651.392 330.814,651.000 C 329.919,650.608 328.887,650.146 328.000,649.646 C 327.113,649.146 326.326,648.581 325.493,648.000 C 324.659,647.419 323.749,646.782 323.000,646.160 C 322.251,645.539 321.667,644.954 321.000,644.271 C 320.333,643.587 319.591,642.770 319.000,642.058 C 318.409,641.346 317.951,640.726 317.451,640.000 C 316.951,639.274 316.468,638.535 316.000,637.702 C 315.532,636.868 315.081,635.950 314.644,635.000 C 314.206,634.050 313.751,633.000 313.373,632.000 C 312.995,631.000 312.437,630.089 312.374,629.000 C 312.312,627.911 312.423,626.297 313.000,625.464 C 313.577,624.630 314.834,624.315 315.834,624.000 C 316.834,623.685 317.892,623.742 319.000,623.575 C 320.108,623.409 321.317,623.229 322.484,623.000 C 323.650,622.771 324.914,622.478 326.000,622.202 C 327.086,621.926 328.000,621.646 329.000,621.342 C 330.000,621.038 331.000,620.715 332.000,620.377 C 333.000,620.039 334.000,619.699 335.000,619.313 C 336.000,618.926 337.111,618.443 338.000,618.057 C 338.889,617.672 339.498,617.408 340.332,617.000 C 341.165,616.592 342.059,616.110 343.000,615.610 C 343.941,615.110 345.144,614.459 345.978,614.000 C 346.811,613.541 347.165,613.353 348.000,612.853 C 348.835,612.353 350.156,611.535 350.989,611.000 C 351.823,610.465 352.270,610.146 353.000,609.646 C 353.730,609.146 354.538,608.589 355.371,608.000 C 356.205,607.411 357.229,606.689 358.000,606.111 C 358.771,605.532 359.333,605.060 360.000,604.530 C 360.667,603.999 361.294,603.517 362.000,602.929 C 362.706,602.340 363.497,601.655 364.234,601.000 C 364.972,600.345 365.698,599.667 366.427,599.000 C 367.155,598.333 367.898,597.667 368.607,597.000 C 369.315,596.333 370.008,595.667 370.677,595.000 C 371.346,594.333 371.984,593.667 372.621,593.000 C 373.258,592.333 373.876,591.667 374.499,591.000 C 375.122,590.333 375.762,589.667 376.359,589.000 C 376.956,588.333 377.472,587.736 378.079,587.000 C 378.686,586.264 379.367,585.414 380.000,584.581 C 380.633,583.748 381.309,582.764 381.875,582.000 C 382.442,581.236 382.878,580.697 383.399,580.000 C 383.920,579.303 384.400,578.644 385.000,577.818 C 385.600,576.992 386.441,575.847 387.000,575.044 C 387.559,574.241 387.855,573.788 388.355,573.000 C 388.855,572.212 389.499,571.151 390.000,570.317 C 390.501,569.484 390.860,568.854 391.360,568.000 C 391.860,567.146 392.515,566.028 393.000,565.194 C 393.485,564.361 393.793,563.866 394.270,563.000 C 394.747,562.134 395.406,560.856 395.861,560.000 C 396.316,559.144 396.577,558.698 397.000,557.864 C 397.423,557.031 397.953,555.977 398.401,555.000 C 398.850,554.023 399.259,552.967 399.692,552.000 C 400.126,551.033 400.615,550.048 401.000,549.197 C 401.385,548.346 401.631,547.759 402.000,546.893 C 402.369,546.027 402.835,544.982 403.217,544.000 C 403.598,543.018 403.934,542.000 404.290,541.000 C 404.646,540.000 404.997,539.000 405.352,538.000 C 405.708,537.000 406.077,536.000 406.424,535.000 C 406.771,534.000 407.106,533.000 407.435,532.000 C 407.765,531.000 408.091,530.000 408.401,529.000 C 408.711,528.000 409.017,527.000 409.295,526.000 C 409.573,525.000 409.785,524.120 410.070,523.000 C 410.354,521.880 410.729,520.448 411.000,519.281 C 411.271,518.115 411.469,517.047 411.695,516.000 C 411.921,514.953 412.139,514.120 412.357,513.000 C 412.574,511.880 412.800,510.446 413.000,509.279 C 413.200,508.113 413.389,507.047 413.557,506.000 C 413.726,504.953 413.843,504.167 414.010,503.000 C 414.178,501.833 414.395,500.283 414.560,499.000 C 414.725,497.717 414.866,496.468 415.000,495.301 C 415.134,494.134 415.269,493.217 415.361,492.000 C 415.453,490.783 415.480,489.333 415.552,488.000 C 415.624,486.667 415.717,485.292 415.792,484.000 C 415.866,482.708 415.951,481.415 416.000,480.248 C 416.049,479.082 416.056,478.208 416.084,477.000 C 416.111,475.792 416.149,474.333 416.165,473.000 C 416.180,471.667 416.185,470.333 416.177,469.000 C 416.170,467.667 416.160,466.167 416.118,465.000 C 416.076,463.833 416.005,463.167 415.924,462.000 C 415.844,460.833 415.718,459.333 415.634,458.000 C 415.549,456.667 415.523,455.237 415.417,454.000 C 415.311,452.763 415.149,451.746 415.000,450.579 C 414.851,449.412 414.690,448.248 414.524,447.000 C 414.357,445.752 414.153,444.258 414.000,443.091 C 413.847,441.924 413.605,441.027 413.605,440.000 C 413.605,438.973 413.434,437.687 414.000,436.927 C 414.566,436.167 415.833,435.682 417.000,435.440 C 418.167,435.198 419.667,435.464 421.000,435.476 C 422.333,435.488 423.667,435.507 425.000,435.513 C 426.333,435.518 427.667,435.513 429.000,435.510 C 430.333,435.506 431.667,435.495 433.000,435.493 C 434.333,435.490 435.667,435.490 437.000,435.496 C 438.333,435.502 439.667,435.519 441.000,435.526 C 442.333,435.534 443.667,435.541 445.000,435.543 C 446.333,435.545 447.833,435.451 449.000,435.540 C 450.167,435.629 451.167,435.631 452.000,436.077 C 452.833,436.523 453.569,437.228 454.000,438.216 C 454.431,439.203 454.402,440.869 454.589,442.000 C 454.776,443.131 454.969,443.833 455.125,445.000 C 455.281,446.167 455.381,447.667 455.526,449.000 C 455.670,450.333 455.855,451.833 455.991,453.000 C 456.127,454.167 456.241,454.833 456.340,456.000 C 456.439,457.167 456.494,458.667 456.583,460.000 C 456.672,461.333 456.783,462.833 456.872,464.000 C 456.962,465.167 457.055,465.833 457.119,467.000 C 457.182,468.167 457.204,469.667 457.251,471.000 C 457.299,472.333 457.379,473.667 457.403,475.000 C 457.428,476.333 457.418,477.667 457.399,479.000 C 457.379,480.333 457.316,481.667 457.284,483.000 C 457.253,484.333 457.252,485.667 457.208,487.000 C 457.164,488.333 457.085,489.833 457.022,491.000 C 456.958,492.167 456.900,492.833 456.826,494.000 C 456.753,495.167 456.663,496.667 456.581,498.000 C 456.498,499.333 456.448,500.833 456.330,502.000 C 456.213,503.167 456.020,503.833 455.875,505.000 C 455.730,506.167 455.602,507.667 455.460,509.000 C 455.317,510.333 455.167,511.833 455.020,513.000 C 454.874,514.167 454.750,514.833 454.581,516.000 C 454.411,517.167 454.188,518.833 454.002,520.000 C 453.816,521.167 453.637,522.000 453.464,523.000 C 453.291,524.000 453.183,524.833 452.962,526.000 C 452.740,527.167 452.396,528.833 452.135,530.000 C 451.874,531.167 451.643,532.000 451.397,533.000 C 451.151,534.000 450.897,535.000 450.659,536.000 C 450.421,537.000 450.247,537.870 449.970,539.000 C 449.694,540.130 449.313,541.615 449.000,542.781 C 448.687,543.948 448.402,544.964 448.094,546.000 C 447.786,547.036 447.482,548.000 447.154,549.000 C 446.826,550.000 446.484,551.003 446.125,552.000 C 445.766,552.997 445.354,554.017 445.000,554.983 C 444.646,555.948 444.333,556.830 444.000,557.793 C 443.667,558.755 443.333,559.809 443.000,560.756 C 442.667,561.703 442.335,562.600 442.000,563.474 C 441.665,564.348 441.382,565.079 440.991,566.000 C 440.600,566.921 440.100,568.000 439.653,569.000 C 439.205,570.000 438.748,571.027 438.306,572.000 C 437.864,572.973 437.384,574.002 437.000,574.839 C 436.616,575.677 436.403,576.165 436.000,577.026 C 435.597,577.886 435.081,579.004 434.583,580.000 C 434.084,580.996 433.456,582.167 433.011,583.000 C 432.567,583.833 432.374,584.167 431.913,585.000 C 431.452,585.833 430.732,587.161 430.247,588.000 C 429.761,588.839 429.512,589.199 429.000,590.033 C 428.488,590.866 427.710,592.172 427.175,593.000 C 426.641,593.828 426.324,594.216 425.794,595.000 C 425.265,595.784 424.569,596.869 424.000,597.702 C 423.431,598.535 422.878,599.273 422.378,600.000 C 421.878,600.727 421.563,601.275 421.000,602.065 C 420.437,602.855 419.612,603.917 419.000,604.740 C 418.388,605.562 417.877,606.290 417.329,607.000 C 416.780,607.710 416.262,608.323 415.707,609.000 C 415.152,609.677 414.618,610.329 414.000,611.061 C 413.382,611.793 412.667,612.626 412.000,613.391 C 411.333,614.156 410.667,614.893 410.000,615.652 C 409.333,616.411 408.667,617.235 408.000,617.946 C 407.333,618.657 406.667,619.262 406.000,619.917 C 405.333,620.572 404.667,621.220 404.000,621.874 C 403.333,622.528 402.667,623.202 402.000,623.841 C 401.333,624.480 400.667,625.094 400.000,625.708 C 399.333,626.321 398.667,626.930 398.000,627.520 C 397.333,628.110 396.676,628.667 396.000,629.247 C 395.324,629.827 394.697,630.374 393.946,631.000 C 393.196,631.626 392.321,632.357 391.497,633.000 C 390.672,633.643 389.749,634.310 389.000,634.860 C 388.251,635.410 387.752,635.777 387.000,636.300 C 386.248,636.823 385.323,637.431 384.489,638.000 C 383.656,638.569 382.748,639.211 382.000,639.713 C 381.252,640.214 380.833,640.502 380.000,641.011 C 379.167,641.521 377.878,642.271 377.000,642.769 C 376.122,643.267 375.568,643.567 374.735,644.000 C 373.901,644.433 372.956,644.898 372.000,645.367 C 371.044,645.837 369.930,646.377 369.000,646.816 C 368.070,647.255 367.264,647.636 366.419,648.000 C 365.573,648.364 364.831,648.663 363.928,649.000 C 363.025,649.337 362.028,649.686 361.000,650.019 C 359.972,650.353 358.930,650.683 357.763,651.000 C 356.596,651.317 355.127,651.659 354.000,651.918 C 352.873,652.178 352.000,652.371 351.000,652.556 C 350.000,652.740 349.167,652.893 348.000,653.025 Z"/>
<path fill="#ececec" d="M 683.000,653.136 C 682.167,653.199 680.333,653.360 679.000,653.361 C 677.667,653.363 676.167,653.257 675.000,653.145 C 673.833,653.033 673.052,652.879 672.000,652.688 C 670.948,652.497 669.854,652.269 668.687,652.000 C 667.520,651.731 666.115,651.372 665.000,651.075 C 663.885,650.778 663.000,650.529 662.000,650.219 C 661.000,649.908 659.975,649.580 659.000,649.210 C 658.025,648.841 656.983,648.373 656.149,648.000 C 655.316,647.627 654.858,647.373 654.000,646.974 C 653.142,646.575 652.000,646.070 651.000,645.606 C 650.000,645.142 648.852,644.627 648.000,644.192 C 647.148,643.758 646.723,643.470 645.889,643.000 C 645.056,642.530 643.856,641.871 643.000,641.371 C 642.144,640.871 641.584,640.529 640.751,640.000 C 639.917,639.471 638.792,638.730 638.000,638.199 C 637.208,637.667 636.761,637.344 636.000,636.811 C 635.239,636.278 634.266,635.605 633.432,635.000 C 632.599,634.395 631.739,633.760 631.000,633.178 C 630.261,632.596 629.667,632.061 629.000,631.509 C 628.333,630.958 627.687,630.454 627.000,629.869 C 626.313,629.284 625.589,628.645 624.881,628.000 C 624.172,627.355 623.441,626.667 622.749,626.000 C 622.057,625.333 621.400,624.667 620.729,624.000 C 620.059,623.333 619.400,622.667 618.726,622.000 C 618.053,621.333 617.363,620.667 616.688,620.000 C 616.013,619.333 615.318,618.667 614.679,618.000 C 614.039,617.333 613.466,616.684 612.853,616.000 C 612.240,615.316 611.642,614.631 611.000,613.894 C 610.358,613.156 609.667,612.356 609.000,611.575 C 608.333,610.794 607.619,609.968 607.000,609.206 C 606.381,608.443 605.826,607.701 605.286,607.000 C 604.747,606.299 604.313,605.732 603.766,605.000 C 603.218,604.268 602.604,603.444 602.000,602.611 C 601.396,601.778 600.679,600.768 600.140,600.000 C 599.601,599.232 599.287,598.790 598.764,598.000 C 598.241,597.210 597.535,596.093 597.000,595.260 C 596.465,594.427 596.056,593.793 595.556,593.000 C 595.056,592.207 594.500,591.333 594.000,590.500 C 593.500,589.667 593.058,588.866 592.558,588.000 C 592.058,587.134 591.478,586.136 591.000,585.303 C 590.522,584.470 590.184,583.884 589.688,583.000 C 589.192,582.116 588.473,580.848 588.024,580.000 C 587.576,579.152 587.401,578.745 587.000,577.912 C 586.599,577.079 586.064,575.985 585.618,575.000 C 585.172,574.015 584.760,572.982 584.324,572.000 C 583.888,571.018 583.387,569.984 583.000,569.111 C 582.613,568.237 582.368,567.610 582.000,566.758 C 581.632,565.906 581.184,564.960 580.793,564.000 C 580.401,563.040 580.018,562.000 579.649,561.000 C 579.280,560.000 578.927,559.000 578.578,558.000 C 578.230,557.000 577.907,556.000 577.558,555.000 C 577.209,554.000 576.831,553.000 576.484,552.000 C 576.136,551.000 575.804,550.000 575.473,549.000 C 575.142,548.000 574.810,547.000 574.496,546.000 C 574.181,545.000 573.874,544.000 573.587,543.000 C 573.301,542.000 573.040,541.068 572.775,540.000 C 572.511,538.932 572.259,537.757 572.000,536.590 C 571.741,535.423 571.471,534.098 571.224,533.000 C 570.977,531.902 570.734,531.000 570.515,530.000 C 570.297,529.000 570.121,528.167 569.913,527.000 C 569.705,525.833 569.480,524.167 569.266,523.000 C 569.053,521.833 568.841,521.145 568.629,520.000 C 568.418,518.855 568.175,517.295 568.000,516.128 C 567.825,514.961 567.720,514.188 567.582,513.000 C 567.443,511.812 567.302,510.167 567.169,509.000 C 567.036,507.833 566.917,507.167 566.785,506.000 C 566.653,504.833 566.498,503.333 566.376,502.000 C 566.254,500.667 566.139,499.167 566.053,498.000 C 565.967,496.833 565.929,496.167 565.859,495.000 C 565.789,493.833 565.698,492.333 565.631,491.000 C 565.564,489.667 565.498,488.333 565.456,487.000 C 565.413,485.667 565.399,484.333 565.375,483.000 C 565.350,481.667 565.320,480.333 565.310,479.000 C 565.301,477.667 565.310,476.333 565.318,475.000 C 565.325,473.667 565.340,472.333 565.358,471.000 C 565.375,469.667 565.384,468.333 565.422,467.000 C 565.461,465.667 565.523,464.333 565.587,463.000 C 565.651,461.667 565.732,460.167 565.807,459.000 C 565.881,457.833 565.924,457.167 566.034,456.000 C 566.144,454.833 566.348,453.333 566.466,452.000 C 566.584,450.667 566.634,449.167 566.744,448.000 C 566.854,446.833 566.987,446.167 567.127,445.000 C 567.267,443.833 567.421,442.167 567.584,441.000 C 567.747,439.833 567.694,438.833 568.107,438.000 C 568.520,437.167 569.081,436.406 570.063,436.000 C 571.045,435.594 572.677,435.637 574.000,435.565 C 575.323,435.492 576.667,435.566 578.000,435.565 C 579.333,435.564 580.667,435.560 582.000,435.559 C 583.333,435.558 584.667,435.559 586.000,435.557 C 587.333,435.556 588.667,435.553 590.000,435.549 C 591.333,435.545 592.667,435.540 594.000,435.533 C 595.333,435.525 596.667,435.514 598.000,435.503 C 599.333,435.492 600.667,435.417 602.000,435.465 C 603.333,435.514 605.000,435.380 606.000,435.793 C 607.000,436.207 607.665,437.078 608.000,437.946 C 608.335,438.814 608.077,439.991 608.010,441.000 C 607.943,442.009 607.734,442.833 607.597,444.000 C 607.459,445.167 607.326,446.833 607.184,448.000 C 607.042,449.167 606.870,449.833 606.744,451.000 C 606.617,452.167 606.492,453.667 606.424,455.000 C 606.356,456.333 606.384,457.667 606.334,459.000 C 606.283,460.333 606.174,461.667 606.120,463.000 C 606.066,464.333 606.028,465.667 606.010,467.000 C 605.991,468.333 606.002,469.667 606.010,471.000 C 606.017,472.333 606.028,473.667 606.056,475.000 C 606.085,476.333 606.122,477.667 606.180,479.000 C 606.239,480.333 606.323,481.667 606.407,483.000 C 606.491,484.333 606.581,485.833 606.684,487.000 C 606.787,488.167 606.910,488.833 607.024,490.000 C 607.137,491.167 607.239,492.667 607.364,494.000 C 607.489,495.333 607.631,496.833 607.774,498.000 C 607.917,499.167 608.056,499.833 608.221,501.000 C 608.387,502.167 608.590,503.833 608.768,505.000 C 608.945,506.167 609.083,506.853 609.288,508.000 C 609.494,509.147 609.780,510.714 610.000,511.880 C 610.220,513.047 610.388,513.980 610.610,515.000 C 610.832,516.020 611.082,517.000 611.333,518.000 C 611.583,519.000 611.834,519.883 612.112,521.000 C 612.390,522.117 612.708,523.533 613.000,524.700 C 613.292,525.866 613.580,526.950 613.866,528.000 C 614.151,529.050 614.409,530.000 614.713,531.000 C 615.018,532.000 615.349,533.000 615.692,534.000 C 616.035,535.000 616.410,536.000 616.771,537.000 C 617.131,538.000 617.484,539.000 617.855,540.000 C 618.226,541.000 618.640,542.057 618.998,543.000 C 619.355,543.943 619.666,544.796 620.000,545.655 C 620.334,546.515 620.614,547.266 621.000,548.156 C 621.386,549.047 621.862,550.026 622.318,551.000 C 622.775,551.974 623.292,553.049 623.739,554.000 C 624.186,554.951 624.606,555.871 625.000,556.705 C 625.394,557.538 625.656,558.117 626.105,559.000 C 626.553,559.883 627.210,561.114 627.693,562.000 C 628.175,562.886 628.532,563.483 629.000,564.316 C 629.468,565.150 629.998,566.124 630.498,567.000 C 630.998,567.876 631.503,568.738 632.000,569.571 C 632.497,570.404 632.981,571.220 633.481,572.000 C 633.981,572.780 634.441,573.417 635.000,574.250 C 635.559,575.084 636.294,576.208 636.837,577.000 C 637.381,577.792 637.735,578.252 638.262,579.000 C 638.789,579.748 639.385,580.655 640.000,581.488 C 640.615,582.322 641.365,583.248 641.950,584.000 C 642.536,584.752 642.979,585.333 643.516,586.000 C 644.052,586.667 644.588,587.313 645.169,588.000 C 645.750,588.687 646.362,589.411 647.000,590.123 C 647.638,590.835 648.333,591.569 649.000,592.272 C 649.667,592.974 650.333,593.665 651.000,594.338 C 651.667,595.011 652.333,595.661 653.000,596.308 C 653.667,596.955 654.333,597.605 655.000,598.221 C 655.667,598.837 656.275,599.373 657.000,600.003 C 657.725,600.632 658.558,601.334 659.347,602.000 C 660.136,602.666 660.958,603.372 661.733,604.000 C 662.509,604.628 663.289,605.224 664.000,605.769 C 664.711,606.315 665.246,606.735 666.000,607.273 C 666.754,607.812 667.692,608.436 668.525,609.000 C 669.358,609.564 670.254,610.153 671.000,610.660 C 671.746,611.167 672.167,611.523 673.000,612.043 C 673.833,612.563 675.132,613.286 676.000,613.779 C 676.868,614.272 677.375,614.556 678.209,615.000 C 679.042,615.444 680.035,615.978 681.000,616.446 C 681.965,616.914 683.038,617.383 684.000,617.808 C 684.962,618.234 685.890,618.635 686.769,619.000 C 687.649,619.365 688.335,619.667 689.280,620.000 C 690.224,620.333 691.316,620.681 692.436,621.000 C 693.556,621.319 694.906,621.647 696.000,621.917 C 697.094,622.187 698.000,622.387 699.000,622.618 C 700.000,622.849 700.833,623.102 702.000,623.304 C 703.167,623.505 704.878,623.544 706.000,623.827 C 707.122,624.109 708.054,624.471 708.730,625.000 C 709.405,625.529 709.893,626.167 710.054,627.000 C 710.214,627.833 709.914,629.000 709.694,630.000 C 709.473,631.000 709.109,632.000 708.730,633.000 C 708.352,634.000 707.878,635.066 707.423,636.000 C 706.968,636.934 706.507,637.768 706.000,638.602 C 705.493,639.435 704.920,640.267 704.379,641.000 C 703.839,641.733 703.353,642.333 702.758,643.000 C 702.164,643.667 701.523,644.333 700.812,645.000 C 700.101,645.667 699.293,646.367 698.491,647.000 C 697.689,647.633 696.749,648.292 696.000,648.799 C 695.251,649.306 694.833,649.616 694.000,650.042 C 693.167,650.468 692.000,650.985 691.000,651.358 C 690.000,651.730 689.167,652.007 688.000,652.278 C 686.833,652.548 684.833,652.839 684.000,652.983 C 683.167,653.126 683.833,653.073 683.000,653.136 Z"/>
<path fill="#ececec" d="M 752.000,601.122 C 751.167,601.241 749.333,601.468 748.000,601.536 C 746.667,601.603 745.333,601.576 744.000,601.528 C 742.667,601.479 741.167,601.377 740.000,601.243 C 738.833,601.108 738.039,600.927 737.000,600.720 C 735.961,600.513 734.934,600.283 733.768,600.000 C 732.601,599.717 731.128,599.347 730.000,599.024 C 728.872,598.701 727.979,598.397 727.000,598.060 C 726.021,597.722 725.015,597.343 724.128,597.000 C 723.241,596.657 722.534,596.375 721.679,596.000 C 720.825,595.625 719.947,595.205 719.000,594.749 C 718.053,594.293 716.884,593.723 716.000,593.265 C 715.116,592.806 714.529,592.457 713.696,592.000 C 712.862,591.543 711.910,591.022 711.000,590.522 C 710.090,590.022 709.068,589.487 708.234,589.000 C 707.401,588.513 706.739,588.101 706.000,587.601 C 705.261,587.101 704.598,586.600 703.801,586.000 C 703.003,585.400 702.015,584.598 701.215,584.000 C 700.415,583.402 699.702,582.923 699.000,582.410 C 698.298,581.897 697.706,581.491 697.000,580.923 C 696.294,580.355 695.523,579.654 694.764,579.000 C 694.005,578.346 693.215,577.667 692.446,577.000 C 691.677,576.333 690.892,575.665 690.151,575.000 C 689.410,574.335 688.692,573.672 688.000,573.008 C 687.308,572.345 686.666,571.687 686.000,571.019 C 685.334,570.351 684.650,569.670 684.004,569.000 C 683.358,568.330 682.749,567.667 682.124,567.000 C 681.498,566.333 680.842,565.667 680.252,565.000 C 679.661,564.333 679.142,563.667 678.582,563.000 C 678.021,562.333 677.487,561.708 676.890,561.000 C 676.293,560.292 675.648,559.563 675.000,558.752 C 674.352,557.940 673.589,556.923 673.000,556.131 C 672.411,555.339 671.967,554.694 671.467,554.000 C 670.967,553.306 670.578,552.777 670.000,551.965 C 669.422,551.152 668.573,549.953 668.000,549.126 C 667.427,548.298 667.061,547.758 666.561,547.000 C 666.061,546.242 665.522,545.411 665.000,544.577 C 664.478,543.744 663.929,542.813 663.429,542.000 C 662.929,541.187 662.487,540.536 662.000,539.702 C 661.513,538.869 661.007,537.908 660.507,537.000 C 660.007,536.092 659.454,535.090 659.000,534.256 C 658.546,533.423 658.239,532.876 657.785,532.000 C 657.331,531.124 656.738,529.931 656.274,529.000 C 655.810,528.069 655.398,527.244 655.000,526.411 C 654.602,525.578 654.276,524.902 653.889,524.000 C 653.501,523.098 653.074,522.000 652.675,521.000 C 652.275,520.000 651.879,519.000 651.492,518.000 C 651.106,517.000 650.719,516.000 650.355,515.000 C 649.992,514.000 649.648,513.000 649.310,512.000 C 648.971,511.000 648.637,510.000 648.324,509.000 C 648.010,508.000 647.731,507.000 647.429,506.000 C 647.127,505.000 646.810,504.000 646.511,503.000 C 646.213,502.000 645.916,501.000 645.640,500.000 C 645.363,499.000 645.126,498.076 644.853,497.000 C 644.579,495.924 644.255,494.712 644.000,493.546 C 643.745,492.379 643.556,491.091 643.321,490.000 C 643.086,488.909 642.819,488.000 642.591,487.000 C 642.362,486.000 642.158,485.167 641.948,484.000 C 641.739,482.833 641.542,481.167 641.336,480.000 C 641.130,478.833 640.885,478.167 640.713,477.000 C 640.541,475.833 640.473,474.167 640.303,473.000 C 640.133,471.833 639.833,471.167 639.691,470.000 C 639.550,468.833 639.565,467.333 639.456,466.000 C 639.347,464.667 639.165,463.167 639.039,462.000 C 638.912,460.833 638.778,460.167 638.698,459.000 C 638.619,457.833 638.596,456.333 638.560,455.000 C 638.524,453.667 638.495,452.333 638.480,451.000 C 638.466,449.667 638.472,448.333 638.472,447.000 C 638.473,445.667 638.480,444.333 638.484,443.000 C 638.488,441.667 638.296,440.167 638.496,439.000 C 638.695,437.833 638.930,436.598 639.681,436.000 C 640.432,435.402 641.780,435.495 643.000,435.411 C 644.220,435.327 645.667,435.477 647.000,435.494 C 648.333,435.511 649.667,435.516 651.000,435.516 C 652.333,435.515 653.667,435.498 655.000,435.491 C 656.333,435.484 657.667,435.476 659.000,435.473 C 660.333,435.470 661.667,435.471 663.000,435.474 C 664.333,435.476 665.667,435.488 667.000,435.487 C 668.333,435.485 669.667,435.457 671.000,435.465 C 672.333,435.472 673.956,435.277 675.000,435.533 C 676.044,435.789 676.783,436.089 677.264,437.000 C 677.745,437.911 677.784,439.667 677.884,441.000 C 677.983,442.333 677.864,443.667 677.863,445.000 C 677.861,446.333 677.852,447.744 677.875,449.000 C 677.898,450.256 677.938,451.367 678.000,452.534 C 678.062,453.700 678.166,454.756 678.247,456.000 C 678.329,457.244 678.381,458.667 678.490,460.000 C 678.599,461.333 678.743,462.833 678.901,464.000 C 679.060,465.167 679.258,465.926 679.441,467.000 C 679.624,468.074 679.809,469.279 680.000,470.446 C 680.191,471.612 680.380,472.908 680.585,474.000 C 680.791,475.092 680.998,475.854 681.233,477.000 C 681.469,478.146 681.755,479.711 682.000,480.878 C 682.245,482.045 682.455,482.980 682.704,484.000 C 682.954,485.020 683.212,486.000 683.498,487.000 C 683.784,488.000 684.105,489.000 684.421,490.000 C 684.737,491.000 685.056,492.000 685.392,493.000 C 685.727,494.000 686.073,495.000 686.432,496.000 C 686.792,497.000 687.179,498.000 687.547,499.000 C 687.914,500.000 688.247,501.000 688.636,502.000 C 689.025,503.000 689.486,504.072 689.880,505.000 C 690.274,505.928 690.624,506.733 691.000,507.567 C 691.376,508.400 691.709,509.094 692.139,510.000 C 692.569,510.906 693.102,512.032 693.579,513.000 C 694.056,513.968 694.560,514.974 695.000,515.807 C 695.440,516.640 695.727,517.134 696.219,518.000 C 696.712,518.866 697.465,520.167 697.955,521.000 C 698.445,521.833 698.652,522.179 699.159,523.000 C 699.667,523.821 700.460,525.092 701.000,525.926 C 701.540,526.759 701.901,527.268 702.401,528.000 C 702.901,528.732 703.405,529.483 704.000,530.316 C 704.595,531.150 705.397,532.219 705.969,533.000 C 706.541,533.781 706.923,534.333 707.432,535.000 C 707.941,535.667 708.428,536.259 709.023,537.000 C 709.618,537.741 710.337,538.662 711.000,539.444 C 711.663,540.227 712.333,540.976 713.000,541.696 C 713.667,542.417 714.333,543.086 715.000,543.769 C 715.667,544.452 716.333,545.125 717.000,545.795 C 717.667,546.465 718.333,547.138 719.000,547.789 C 719.667,548.441 720.333,549.087 721.000,549.701 C 721.667,550.315 722.333,550.892 723.000,551.473 C 723.667,552.055 724.277,552.604 725.000,553.191 C 725.723,553.779 726.506,554.391 727.339,555.000 C 728.172,555.609 729.223,556.292 730.000,556.843 C 730.777,557.393 731.253,557.776 732.000,558.302 C 732.747,558.828 733.651,559.439 734.485,560.000 C 735.318,560.561 736.212,561.169 737.000,561.669 C 737.788,562.169 738.382,562.525 739.215,563.000 C 740.048,563.475 741.043,564.022 742.000,564.522 C 742.957,565.022 744.103,565.587 744.957,566.000 C 745.812,566.413 746.287,566.629 747.128,567.000 C 747.968,567.371 749.021,567.833 750.000,568.225 C 750.979,568.617 752.000,568.999 753.000,569.352 C 754.000,569.705 755.000,570.031 756.000,570.343 C 757.000,570.655 757.968,570.946 759.000,571.222 C 760.032,571.498 761.027,571.733 762.194,572.000 C 763.360,572.267 764.866,572.602 766.000,572.826 C 767.134,573.050 767.833,573.180 769.000,573.343 C 770.167,573.507 772.000,573.459 773.000,573.807 C 774.000,574.155 774.595,574.567 775.000,575.433 C 775.405,576.298 775.544,577.905 775.433,579.000 C 775.321,580.095 774.736,581.016 774.330,582.000 C 773.925,582.984 773.429,584.068 773.000,584.902 C 772.571,585.735 772.254,586.220 771.754,587.000 C 771.254,587.780 770.626,588.753 770.000,589.582 C 769.374,590.412 768.667,591.244 768.000,591.979 C 767.333,592.713 766.667,593.369 766.000,593.990 C 765.333,594.612 764.667,595.183 764.000,595.709 C 763.333,596.234 762.833,596.639 762.000,597.144 C 761.167,597.648 760.000,598.268 759.000,598.735 C 758.000,599.202 757.000,599.599 756.000,599.947 C 755.000,600.294 753.667,600.625 753.000,600.821 C 752.333,601.017 752.833,601.003 752.000,601.122 Z"/>
<path fill="#ececec" d="M 433.000,683.067 C 432.167,683.193 431.000,683.371 430.000,683.411 C 429.000,683.452 427.852,683.379 427.000,683.310 C 426.148,683.242 425.723,683.155 424.890,683.000 C 424.057,682.845 422.815,682.611 422.000,682.379 C 421.185,682.147 420.667,681.890 420.000,681.610 C 419.333,681.330 418.667,681.066 418.000,680.700 C 417.333,680.335 416.661,679.866 416.000,679.416 C 415.339,678.966 414.559,678.403 414.033,678.000 C 413.508,677.597 413.352,677.465 412.846,677.000 C 412.341,676.535 411.491,675.711 411.000,675.211 C 410.509,674.711 410.331,674.535 409.900,674.000 C 409.468,673.465 408.865,672.667 408.410,672.000 C 407.955,671.333 407.562,670.667 407.170,670.000 C 406.777,669.333 406.374,668.667 406.052,668.000 C 405.730,667.333 405.478,666.667 405.238,666.000 C 404.998,665.333 404.606,664.667 404.612,664.000 C 404.618,663.333 404.876,662.591 405.274,662.000 C 405.672,661.409 406.379,660.874 407.000,660.454 C 407.621,660.035 408.333,659.799 409.000,659.483 C 409.667,659.167 410.333,658.877 411.000,658.560 C 411.667,658.243 412.333,657.927 413.000,657.581 C 413.667,657.236 414.333,656.862 415.000,656.486 C 415.667,656.111 416.333,655.740 417.000,655.329 C 417.667,654.918 418.422,654.410 419.000,654.022 C 419.578,653.634 419.967,653.365 420.467,653.000 C 420.967,652.635 421.411,652.296 422.000,651.835 C 422.589,651.374 423.418,650.706 424.000,650.234 C 424.582,649.761 424.994,649.417 425.494,649.000 C 425.994,648.583 426.419,648.235 427.000,647.735 C 427.581,647.235 428.473,646.456 428.977,646.000 C 429.480,645.544 429.519,645.486 430.023,645.000 C 430.526,644.514 431.496,643.583 432.000,643.083 C 432.504,642.583 432.580,642.514 433.048,642.000 C 433.517,641.486 434.320,640.568 434.812,640.000 C 435.304,639.432 435.582,639.093 436.000,638.593 C 436.418,638.093 436.835,637.599 437.319,637.000 C 437.803,636.401 438.458,635.567 438.905,635.000 C 439.351,634.433 439.622,634.096 440.000,633.596 C 440.378,633.096 440.739,632.599 441.171,632.000 C 441.603,631.401 442.136,630.667 442.594,630.000 C 443.051,629.333 443.515,628.612 443.916,628.000 C 444.317,627.388 444.653,626.887 445.000,626.330 C 445.347,625.773 445.667,625.223 446.000,624.658 C 446.333,624.093 446.655,623.549 447.000,622.940 C 447.345,622.330 447.718,621.657 448.069,621.000 C 448.421,620.343 448.751,619.667 449.108,619.000 C 449.464,618.333 449.863,617.667 450.208,617.000 C 450.553,616.333 450.860,615.667 451.177,615.000 C 451.493,614.333 451.805,613.718 452.109,613.000 C 452.412,612.282 452.685,611.492 453.000,610.694 C 453.315,609.896 453.711,608.996 454.000,608.213 C 454.289,607.431 454.402,606.687 454.735,606.000 C 455.069,605.313 455.617,604.423 456.000,604.089 C 456.383,603.756 456.659,603.682 457.035,604.000 C 457.410,604.318 457.926,605.203 458.253,606.000 C 458.581,606.797 458.780,607.948 459.000,608.781 C 459.220,609.614 459.390,610.297 459.573,611.000 C 459.756,611.703 459.914,612.167 460.099,613.000 C 460.284,613.833 460.507,615.167 460.683,616.000 C 460.859,616.833 460.999,617.167 461.155,618.000 C 461.310,618.833 461.475,620.008 461.615,621.000 C 461.756,621.992 461.897,623.116 462.000,623.949 C 462.103,624.783 462.174,625.158 462.231,626.000 C 462.288,626.842 462.322,628.000 462.342,629.000 C 462.362,630.000 462.364,631.000 462.351,632.000 C 462.339,633.000 462.308,634.000 462.266,635.000 C 462.224,636.000 462.166,637.167 462.099,638.000 C 462.033,638.833 461.957,639.167 461.866,640.000 C 461.776,640.833 461.678,642.000 461.555,643.000 C 461.432,644.000 461.258,645.167 461.127,646.000 C 460.996,646.833 460.922,647.167 460.766,648.000 C 460.610,648.833 460.374,650.167 460.191,651.000 C 460.007,651.833 459.863,652.259 459.665,653.000 C 459.466,653.741 459.253,654.611 459.000,655.445 C 458.747,656.278 458.417,657.241 458.146,658.000 C 457.876,658.759 457.649,659.333 457.377,660.000 C 457.106,660.667 456.817,661.333 456.516,662.000 C 456.215,662.667 455.897,663.333 455.571,664.000 C 455.246,664.667 454.924,665.333 454.564,666.000 C 454.205,666.667 453.818,667.333 453.416,668.000 C 453.015,668.667 452.557,669.411 452.154,670.000 C 451.752,670.589 451.396,671.032 451.000,671.532 C 450.604,672.032 450.279,672.430 449.779,673.000 C 449.279,673.570 448.467,674.452 448.000,674.952 C 447.533,675.452 447.475,675.541 446.975,676.000 C 446.475,676.459 445.621,677.204 445.000,677.704 C 444.379,678.204 443.793,678.617 443.246,679.000 C 442.699,679.383 442.273,679.667 441.718,680.000 C 441.163,680.333 440.646,680.667 439.916,681.000 C 439.186,681.333 438.158,681.724 437.338,682.000 C 436.519,682.276 435.723,682.476 435.000,682.654 C 434.277,682.832 433.833,682.941 433.000,683.067 Z"/>
<path fill="#ececec" d="M 597.000,683.114 C 596.398,683.182 595.000,683.383 594.000,683.407 C 593.000,683.432 591.833,683.339 591.000,683.261 C 590.167,683.183 589.833,683.110 589.000,682.940 C 588.167,682.770 586.833,682.481 586.000,682.240 C 585.167,682.000 584.667,681.778 584.000,681.497 C 583.333,681.215 582.667,680.907 582.000,680.553 C 581.333,680.198 580.666,679.795 580.000,679.369 C 579.334,678.944 578.545,678.395 578.005,678.000 C 577.465,677.605 577.263,677.440 576.762,677.000 C 576.261,676.560 575.508,675.863 575.000,675.363 C 574.492,674.863 574.215,674.550 573.715,674.000 C 573.215,673.450 572.453,672.602 572.000,672.062 C 571.547,671.522 571.374,671.270 571.000,670.760 C 570.626,670.250 570.172,669.627 569.757,669.000 C 569.342,668.373 568.908,667.667 568.511,667.000 C 568.115,666.333 567.729,665.667 567.378,665.000 C 567.026,664.333 566.709,663.667 566.403,663.000 C 566.098,662.333 565.823,661.667 565.546,661.000 C 565.268,660.333 564.997,659.701 564.740,659.000 C 564.482,658.299 564.261,657.627 564.000,656.794 C 563.739,655.960 563.411,654.799 563.173,654.000 C 562.935,653.201 562.766,652.746 562.571,652.000 C 562.375,651.254 562.180,650.359 562.000,649.526 C 561.820,648.692 561.656,647.892 561.489,647.000 C 561.323,646.108 561.131,645.006 561.000,644.172 C 560.869,643.339 560.796,642.862 560.702,642.000 C 560.607,641.138 560.503,640.000 560.434,639.000 C 560.365,638.000 560.325,637.000 560.290,636.000 C 560.255,635.000 560.233,634.000 560.225,633.000 C 560.217,632.000 560.216,631.000 560.241,630.000 C 560.267,629.000 560.303,628.000 560.377,627.000 C 560.450,626.000 560.577,625.000 560.681,624.000 C 560.785,623.000 560.888,621.834 561.000,621.001 C 561.112,620.167 561.216,619.833 561.353,619.000 C 561.490,618.167 561.669,616.833 561.821,616.000 C 561.972,615.167 562.066,614.833 562.262,614.000 C 562.459,613.167 562.787,611.836 563.000,611.003 C 563.213,610.169 563.356,609.667 563.539,609.000 C 563.721,608.333 563.851,607.753 564.094,607.000 C 564.338,606.247 564.682,604.984 565.000,604.484 C 565.318,603.984 565.549,603.747 566.005,604.000 C 566.461,604.253 567.325,605.333 567.735,606.000 C 568.144,606.667 568.217,607.333 568.461,608.000 C 568.705,608.667 568.943,609.298 569.199,610.000 C 569.456,610.702 569.700,611.467 570.000,612.214 C 570.300,612.961 570.667,613.757 571.000,614.482 C 571.333,615.208 571.667,615.874 572.000,616.566 C 572.333,617.259 572.667,617.956 573.000,618.636 C 573.333,619.316 573.667,620.000 574.000,620.644 C 574.333,621.289 574.667,621.898 575.000,622.504 C 575.333,623.110 575.667,623.691 576.000,624.279 C 576.333,624.867 576.630,625.411 577.000,626.031 C 577.370,626.652 577.805,627.339 578.219,628.000 C 578.632,628.661 579.030,629.333 579.482,630.000 C 579.934,630.667 580.511,631.429 580.931,632.000 C 581.351,632.571 581.620,632.927 582.000,633.427 C 582.380,633.927 582.745,634.405 583.208,635.000 C 583.671,635.595 584.312,636.431 584.777,637.000 C 585.243,637.569 585.556,637.916 586.000,638.416 C 586.444,638.916 586.940,639.456 587.440,640.000 C 587.940,640.544 588.533,641.177 589.000,641.677 C 589.467,642.177 589.742,642.470 590.242,643.000 C 590.742,643.530 591.515,644.356 592.000,644.856 C 592.485,645.356 592.651,645.535 593.151,646.000 C 593.651,646.465 594.429,647.145 595.000,647.645 C 595.571,648.145 596.074,648.581 596.574,649.000 C 597.074,649.419 597.429,649.704 598.000,650.159 C 598.571,650.614 599.378,651.256 600.000,651.729 C 600.622,652.203 601.204,652.622 601.733,653.000 C 602.262,653.378 602.632,653.633 603.176,654.000 C 603.721,654.367 604.363,654.787 605.000,655.201 C 605.637,655.615 606.333,656.080 607.000,656.485 C 607.667,656.889 608.333,657.269 609.000,657.628 C 609.667,657.987 610.333,658.325 611.000,658.639 C 611.667,658.952 612.333,659.229 613.000,659.511 C 613.667,659.793 614.333,659.937 615.000,660.332 C 615.667,660.727 616.546,661.272 617.000,661.883 C 617.454,662.494 617.725,663.152 617.725,664.000 C 617.725,664.848 617.288,666.141 617.000,666.973 C 616.712,667.804 616.333,668.373 616.000,668.990 C 615.667,669.607 615.333,670.142 615.000,670.674 C 614.667,671.206 614.407,671.625 614.000,672.179 C 613.593,672.734 613.060,673.411 612.560,674.000 C 612.060,674.589 611.486,675.213 611.000,675.713 C 610.514,676.213 610.146,676.552 609.646,677.000 C 609.146,677.448 608.608,677.938 608.000,678.400 C 607.392,678.861 606.667,679.347 606.000,679.769 C 605.333,680.190 604.667,680.592 604.000,680.927 C 603.333,681.263 602.667,681.516 602.000,681.781 C 601.333,682.047 600.731,682.318 600.000,682.521 C 599.269,682.725 598.115,682.901 597.615,683.000 C 597.115,683.099 597.602,683.046 597.000,683.114 Z"/>
</svg>